# This file uses meters as units for non-parametric coordinates.

g default
v -5.631927 7.264633 8.670940
v -9.181437 6.650599 7.289280
v -10.947159 8.929965 4.581520
v -6.481782 11.191828 5.929401
v -9.455142 3.831172 6.807615
v -12.364555 4.969700 3.228506
v -9.137873 1.424337 5.863145
v -10.712300 1.408701 2.505323
v -5.485987 0.684950 7.042213
v -6.145476 -0.258096 3.013953
v -5.467105 3.425760 8.886302
v -12.421000 6.516712 -9.264098
v -7.654486 6.612257 -10.900841
v -11.961226 3.438693 -7.488110
v -7.353691 1.934157 -8.638591
v -13.475151 7.074626 -6.767794
v -12.192690 10.814759 -5.798216
v -7.730605 13.312448 -6.126874
v -12.677311 2.095054 -2.737789
v -6.991380 0.091034 -2.630386
v -14.707876 6.513484 -1.851022
v -12.894711 11.198941 -0.366537
v -7.409540 14.135737 0.813418
v 0.691211 6.835100 -10.624197
v 0.207555 14.411729 -5.576272
v -0.268862 15.364714 1.454700
v -0.529855 12.105284 6.612578
v -0.613421 7.685395 9.420670
v -0.545709 3.440225 9.805604
v -0.350600 0.508517 7.772327
v -0.055505 -0.653499 3.577790
v 0.307305 -0.313262 -2.174969
v 0.654906 1.661004 -8.269108
v 4.473427 7.464481 9.314346
v 5.496461 11.406560 6.685818
v 10.194818 9.295281 5.913184
v 8.194781 6.980635 8.391930
v 11.943696 5.400837 4.759454
v 8.651188 4.185020 7.956026
v 10.552703 1.827808 3.851783
v 8.561858 1.787921 6.988027
v 6.034611 0.000000 3.788704
v 4.823655 0.906474 7.699288
v 4.449365 3.632724 9.518343
v 13.529433 6.929273 -7.635782
v 9.008472 6.918846 -9.849195
v 12.980961 3.870509 -5.917675
v 8.626860 2.256031 -7.625564
v 14.239010 7.470655 -5.037039
v 12.684036 11.169755 -4.244115
v 8.192080 13.575804 -5.127241
v 13.140541 2.582182 -1.107415
v 7.580375 0.393973 -1.704624
v 14.852131 6.992242 0.001310
v 12.662011 11.603566 1.234184
v 6.943637 14.373891 1.714760
vt 0.260376 0.255059
vt 0.326350 0.283378
vt 0.310657 0.379677
vt 0.210878 0.346213
vt 0.400951 0.272407
vt 0.460351 0.355575
vt 0.457912 0.202435
vt 0.553744 0.296803
vt 0.822220 0.031403
vt 0.893356 0.026836
vt 0.862430 0.099143
vt 0.749332 0.122186
vt 0.355273 0.184808
vt 0.432839 0.130507
vt 0.723927 0.439059
vt 0.841422 0.440981
vt 0.379357 0.645125
vt 0.513387 0.068466
vt 0.689625 0.302383
vt 0.824446 0.305802
vt 0.454075 0.527840
vt 0.654613 0.476107
vt 0.306542 0.542099
vt 0.577462 0.057672
vt 0.730328 0.189103
vt 0.847789 0.191799
vt 0.466631 0.408914
vt 0.609621 0.354620
vt 0.305091 0.423443
vt 0.203236 0.394847
vt 0.492435 0.007168
vt 0.561501 0.003974
vt 0.091369 0.345645
vt 0.097041 0.300281
vt 0.170546 0.207008
vt 0.286592 0.106479
vt 0.384282 0.049095
vt 0.984656 0.022537
vt 0.984656 0.107540
vt 0.984656 0.197823
vt 0.984656 0.310051
vt 0.984656 0.442472
vt 0.260376 0.255059
vt 0.210878 0.346213
vt 0.310657 0.379677
vt 0.326350 0.283378
vt 0.460351 0.355575
vt 0.400951 0.272407
vt 0.553744 0.296803
vt 0.457912 0.202435
vt 0.822220 0.031403
vt 0.749332 0.122186
vt 0.862430 0.099143
vt 0.893356 0.026836
vt 0.355273 0.184808
vt 0.432839 0.130507
vt 0.723927 0.439059
vt 0.841422 0.440981
vt 0.540731 0.119523
vt 0.513387 0.068466
vt 0.689625 0.302383
vt 0.824446 0.305802
vt 0.454075 0.527840
vt 0.654613 0.476107
vt 0.586584 0.126123
vt 0.577462 0.057672
vt 0.730328 0.189103
vt 0.847789 0.191799
vt 0.466631 0.408914
vt 0.609621 0.354620
vt 0.305091 0.423443
vt 0.630616 0.046119
vt 0.492435 0.007168
vt 0.561501 0.003974
vt 0.091369 0.345645
vt 0.097041 0.300281
vt 0.170546 0.207008
vt 0.286592 0.106479
vt 0.384282 0.049095
vt 0.984656 0.107540
vt 0.984656 0.022537
vt 0.984656 0.197823
vt 0.984656 0.310051
vt 0.984656 0.442472
vt 0.630616 0.046119
vt 0.629197 0.003205
vt 0.620729 0.082590
vt 0.586584 0.126123
vt 0.540731 0.119523
vt 0.203236 0.394847
vt 0.629197 0.003205
vt 0.620729 0.082590
vt 0.306542 0.542099
vt 0.379357 0.645125
vn -0.272954 0.328313 0.904271
vn -0.310116 0.704018 0.638895
vn -0.678524 0.453262 0.578064
vn -0.570815 0.216935 0.791903
vn -0.892017 -0.140521 0.429604
vn -0.654186 -0.211610 0.726128
vn -0.599780 -0.778793 0.183697
vn -0.532272 -0.697013 0.480479
vn -0.169183 -0.983810 0.059111
vn -0.207816 -0.828811 0.519505
vn -0.263976 -0.239726 0.934263
vn -0.550311 -0.681322 -0.482659
vn -0.445345 0.185802 -0.875869
vn -0.078347 -0.442082 -0.893546
vn -0.118776 -0.768766 -0.628403
vn -0.965744 0.032904 -0.257402
vn -0.590062 0.695110 -0.410670
vn -0.191372 0.814779 -0.547277
vn -0.100043 0.574225 -0.812562
vn -0.664989 -0.742736 -0.078312
vn -0.163433 -0.970286 -0.178422
vn -0.995428 -0.025369 0.092086
vn -0.736296 0.648399 0.193511
vn -0.311017 0.934112 0.175224
vn 0.020755 0.832448 -0.553715
vn 0.041839 0.568520 -0.821605
vn -0.027228 0.985760 0.165937
vn -0.055313 0.742805 0.667219
vn -0.065987 0.357539 0.931564
vn -0.057020 -0.231130 0.971251
vn -0.016204 -0.844015 0.536074
vn 0.016679 -0.997494 0.068759
vn 0.032375 -0.981249 -0.190005
vn 0.055779 -0.769123 -0.636662
vn 0.065215 -0.423575 -0.903510
vn 0.144334 0.338599 0.929795
vn 0.457962 0.240795 0.855739
vn 0.583458 0.480946 0.654421
vn 0.203043 0.715250 0.668723
vn 0.564579 -0.185007 0.804377
vn 0.835122 -0.102315 0.540466
vn 0.492598 -0.677360 0.546380
vn 0.598085 -0.757827 0.260755
vn 0.173922 -0.820885 0.543965
vn 0.199045 -0.976436 0.083393
vn 0.152998 -0.230804 0.960896
vn 0.625343 -0.666099 -0.406520
vn 0.224347 -0.763509 -0.605576
vn 0.203171 -0.438071 -0.875680
vn 0.546229 0.203449 -0.812553
vn 0.988596 0.072512 -0.131982
vn 0.613873 0.716114 -0.332175
vn 0.232245 0.822774 -0.518754
vn 0.183601 0.581010 -0.792917
vn 0.692673 -0.721183 0.009953
vn 0.220915 -0.963260 -0.152730
vn 0.975740 0.017359 0.218245
vn 0.681883 0.675626 0.280295
vn 0.255781 0.943783 0.209405
s 1
g pCylinder3
f 1/1/1 4/4/2 3/3/3 2/2/4
f 2/2/4 3/3/3 6/6/5 5/5/6
f 5/5/6 6/6/5 8/8/7 7/7/8
f 7/9/8 8/12/7 10/11/9 9/10/10
f 2/2/4 5/5/6 11/13/11 1/1/1
f 7/7/8 9/14/10 11/13/11 5/5/6
f 14/19/12 12/15/13 13/16/14 15/20/15
f 16/21/16 12/17/13 14/22/12
f 17/23/17 12/17/13 16/21/16
f 18/24/18 13/18/19 12/89/13 17/88/17
f 19/25/20 14/19/12 15/20/15 20/26/21
f 21/27/22 16/21/16 14/22/12 19/28/20
f 22/29/23 17/23/17 16/21/16 21/27/22
f 23/85/24 18/24/18 17/88/17 22/87/23
f 8/12/7 19/25/20 20/26/21 10/11/9
f 6/6/5 21/27/22 19/28/20 8/8/7
f 3/3/3 22/29/23 21/27/22 6/6/5
f 4/4/2 23/30/24 22/29/23 3/3/3
f 25/32/25 24/31/26 13/18/19 18/24/18
f 26/86/27 25/32/25 18/24/18 23/85/24
f 27/34/28 26/33/27 23/30/24 4/4/2
f 28/35/29 27/34/28 4/4/2 1/1/1
f 11/13/11 29/36/30 28/35/29 1/1/1
f 9/14/10 30/37/31 29/36/30 11/13/11
f 10/11/9 31/39/32 30/38/31 9/10/10
f 20/26/21 32/40/33 31/39/32 10/11/9
f 15/20/15 33/41/34 32/40/33 20/26/21
f 13/16/14 24/42/35 33/41/34 15/20/15
f 34/43/36 37/46/37 36/45/38 35/44/39
f 37/46/37 39/48/40 38/47/41 36/45/38
f 39/48/40 41/50/42 40/49/43 38/47/41
f 41/51/42 43/54/44 42/53/45 40/52/43
f 37/46/37 34/43/36 44/55/46 39/48/40
f 41/50/42 39/48/40 44/55/46 43/56/44
f 47/61/47 48/62/48 46/58/49 45/57/50
f 49/63/51 47/64/47 45/94/50
f 50/93/52 49/63/51 45/94/50
f 51/66/53 50/65/52 45/59/50 46/60/54
f 52/67/55 53/68/56 48/62/48 47/61/47
f 54/69/57 52/70/55 47/64/47 49/63/51
f 55/71/58 54/69/57 49/63/51 50/93/52
f 56/72/59 55/92/58 50/65/52 51/66/53
f 40/52/43 42/53/45 53/68/56 52/67/55
f 38/47/41 40/49/43 52/70/55 54/69/57
f 36/45/38 38/47/41 54/69/57 55/71/58
f 35/44/39 36/45/38 55/71/58 56/90/59
f 25/74/25 51/66/53 46/60/54 24/73/26
f 26/91/27 56/72/59 51/66/53 25/74/25
f 27/76/28 35/44/39 56/90/59 26/75/27
f 28/77/29 34/43/36 35/44/39 27/76/28
f 44/55/46 34/43/36 28/77/29 29/78/30
f 43/56/44 44/55/46 29/78/30 30/79/31
f 42/53/45 43/54/44 30/81/31 31/80/32
f 53/68/56 42/53/45 31/80/32 32/82/33
f 48/62/48 53/68/56 32/82/33 33/83/34
f 46/58/49 48/62/48 33/83/34 24/84/35
