# This file uses meters as units for non-parametric coordinates.

g default
v 5.007226 7.474881 9.046073
v 2.119597 6.902425 11.529945
v -1.100314 9.022094 11.816087
v 2.187892 11.175680 8.507905
v 1.565812 4.226192 11.545196
v -2.960702 5.321866 12.431402
v 0.881220 1.958156 10.821304
v -2.822610 1.957101 10.633103
v 3.638127 1.266566 8.151860
v -0.227538 0.364733 6.840980
v 5.274783 3.857649 9.001791
v -14.014478 6.849038 6.610536
v -13.219289 6.946437 1.633966
v -12.230745 3.925570 7.039288
v -11.081044 2.467260 2.431559
v -12.306364 7.235953 8.714135
v -10.847845 10.687157 8.037739
v -9.041071 13.044302 3.944601
v -8.374140 2.637953 9.903710
v -5.607327 0.692069 4.935200
v -8.545619 6.750089 12.112815
v -6.383193 11.143230 11.209940
v -2.763981 13.946216 6.922668
v -9.053178 7.167923 -5.602794
v -4.824651 14.025744 -2.803684
v 1.157717 15.077306 0.920935
v 5.587938 12.034520 3.575172
v 8.027376 7.855678 4.968551
v 8.398979 3.871001 5.089675
v 6.695888 1.095986 3.961947
v 3.132039 0.000000 1.730316
v -1.775440 0.303029 -1.293351
v -6.991397 2.207384 -4.464014
v 10.324006 7.662968 0.428417
v 8.484553 11.377349 -1.709851
v 10.010461 9.365491 -6.220187
v 11.258573 7.213383 -3.289904
v 9.813919 5.725318 -8.306101
v 11.088279 4.558012 -3.897622
v 8.359043 2.349130 -7.504812
v 10.191847 2.301457 -4.273664
v 6.180157 0.606836 -3.546328
v 9.062972 1.475600 -0.639701
v 10.492765 4.052030 0.545520
v -0.382194 7.231862 -15.530766
v -4.460526 7.234120 -12.580258
v 0.876637 4.322924 -14.239232
v -2.677056 2.767403 -11.198452
v 2.245178 7.605740 -14.935875
v 2.214359 11.017484 -13.190674
v -0.676098 13.290473 -9.640626
v 5.197656 3.093650 -12.119593
v 2.057591 0.976551 -7.492273
v 6.980663 7.199381 -13.109391
v 7.039715 11.522867 -10.596799
v 4.776667 14.169395 -5.323339
vt 0.278904 0.221200
vt 0.322239 0.239801
vt 0.322152 0.271540
vt 0.256612 0.249559
vt 0.371241 0.232595
vt 0.420479 0.255708
vt 0.408656 0.186633
vt 0.446902 0.225621
vt 0.822220 0.031403
vt 0.893356 0.026836
vt 0.862430 0.099143
vt 0.749332 0.122186
vt 0.355273 0.184808
vt 0.411638 0.127716
vt 0.723927 0.439059
vt 0.841422 0.440981
vt 0.379357 0.645125
vt 0.513387 0.068466
vt 0.689625 0.302383
vt 0.824446 0.305802
vt 0.454075 0.527840
vt 0.654613 0.476107
vt 0.306542 0.542099
vt 0.577462 0.057672
vt 0.730328 0.189103
vt 0.847789 0.191799
vt 0.466631 0.408914
vt 0.609621 0.354620
vt 0.305091 0.423443
vt 0.203236 0.394847
vt 0.492435 0.007168
vt 0.561501 0.003974
vt 0.091369 0.345645
vt 0.181838 0.219388
vt 0.219899 0.189637
vt 0.286592 0.106479
vt 0.379743 0.074241
vt 0.984656 0.022537
vt 0.984656 0.107540
vt 0.984656 0.197823
vt 0.984656 0.310051
vt 0.984656 0.442472
vt 0.278904 0.221200
vt 0.256612 0.249559
vt 0.322152 0.271540
vt 0.322239 0.239801
vt 0.420479 0.255708
vt 0.371241 0.232595
vt 0.446902 0.225621
vt 0.408656 0.186633
vt 0.822220 0.031403
vt 0.749332 0.122186
vt 0.862430 0.099143
vt 0.893356 0.026836
vt 0.355273 0.184808
vt 0.411638 0.127716
vt 0.723927 0.439059
vt 0.841422 0.440981
vt 0.540731 0.119523
vt 0.513387 0.068466
vt 0.689625 0.302383
vt 0.824446 0.305802
vt 0.454075 0.527840
vt 0.654613 0.476107
vt 0.586584 0.126123
vt 0.577462 0.057672
vt 0.730328 0.189103
vt 0.847789 0.191799
vt 0.466631 0.408914
vt 0.609621 0.354620
vt 0.305091 0.423443
vt 0.630616 0.046119
vt 0.492435 0.007168
vt 0.561501 0.003974
vt 0.091369 0.345645
vt 0.181838 0.219388
vt 0.219899 0.189637
vt 0.286592 0.106479
vt 0.379743 0.074241
vt 0.984656 0.107540
vt 0.984656 0.022537
vt 0.984656 0.197823
vt 0.984656 0.310051
vt 0.984656 0.442472
vt 0.630616 0.046119
vt 0.629197 0.003205
vt 0.620729 0.082590
vt 0.586584 0.126123
vt 0.540731 0.119523
vt 0.203236 0.394847
vt 0.629197 0.003205
vt 0.620729 0.082590
vt 0.306542 0.542099
vt 0.379357 0.645125
vn 0.665949 0.346216 0.660792
vn 0.405189 0.725359 0.556486
vn 0.188112 0.476711 0.858697
vn 0.431146 0.233038 0.871669
vn -0.040563 -0.145932 0.988463
vn 0.332632 -0.223154 0.916274
vn -0.117656 -0.794989 0.595104
vn 0.167357 -0.717294 0.676373
vn -0.025983 -0.985179 0.169553
vn 0.347834 -0.842317 0.411721
vn 0.698645 -0.252536 0.669418
vn -0.666958 -0.702883 0.247231
vn -0.978869 0.203814 -0.016590
vn -0.818135 -0.457865 -0.347872
vn -0.596063 -0.781230 -0.185443
vn -0.682105 0.026779 0.730764
vn -0.615214 0.719313 0.322646
vn -0.544728 0.834587 -0.082072
vn -0.738847 0.611882 -0.282322
vn -0.371379 -0.761190 0.531664
vn -0.225918 -0.972375 0.058727
vn -0.388505 -0.027181 0.921046
vn -0.176607 0.670180 0.720881
vn -0.001245 0.942794 0.333372
vn -0.456211 0.849447 -0.265162
vn -0.682435 0.605885 -0.408885
vn 0.115813 0.989197 0.089875
vn 0.544496 0.762057 0.350417
vn 0.785401 0.375243 0.492278
vn 0.827871 -0.243912 0.505110
vn 0.447998 -0.856514 0.256283
vn 0.066110 -0.997658 0.017565
vn -0.146473 -0.982775 -0.112693
vn -0.523344 -0.781407 -0.339874
vn -0.760954 -0.438534 -0.478160
vn 0.881953 0.356719 0.308076
vn 0.966213 0.257745 0.000301
vn 0.838561 0.504778 -0.204975
vn 0.664088 0.736175 0.130515
vn 0.973383 -0.195219 -0.120063
vn 0.868989 -0.105225 -0.483515
vn 0.694245 -0.698139 -0.175006
vn 0.494027 -0.775041 -0.394016
vn 0.541447 -0.834912 0.098777
vn 0.159926 -0.978532 -0.129997
vn 0.916978 -0.243569 0.315952
vn -0.067666 -0.688475 -0.722097
vn -0.418896 -0.776414 -0.470859
vn -0.672358 -0.453602 -0.584961
vn -0.456859 0.221292 -0.861574
vn 0.347169 0.069756 -0.935205
vn 0.001418 0.739637 -0.673004
vn -0.330067 0.841900 -0.426920
vn -0.591319 0.618827 -0.517102
vn 0.322621 -0.740517 -0.589534
vn -0.029921 -0.966043 -0.256644
vn 0.649361 0.018429 -0.760257
vn 0.548357 0.696909 -0.462193
vn 0.280091 0.951564 -0.126788
s 1
g pCylinder6
f 1/1/1 4/4/2 3/3/3 2/2/4
f 2/2/4 3/3/3 6/6/5 5/5/6
f 5/5/6 6/6/5 8/8/7 7/7/8
f 7/9/8 8/12/7 10/11/9 9/10/10
f 2/2/4 5/5/6 11/13/11 1/1/1
f 7/7/8 9/14/10 11/13/11 5/5/6
f 14/19/12 12/15/13 13/16/14 15/20/15
f 16/21/16 12/17/13 14/22/12
f 17/23/17 12/17/13 16/21/16
f 18/24/18 13/18/19 12/89/13 17/88/17
f 19/25/20 14/19/12 15/20/15 20/26/21
f 21/27/22 16/21/16 14/22/12 19/28/20
f 22/29/23 17/23/17 16/21/16 21/27/22
f 23/85/24 18/24/18 17/88/17 22/87/23
f 8/12/7 19/25/20 20/26/21 10/11/9
f 6/6/5 21/27/22 19/28/20 8/8/7
f 3/3/3 22/29/23 21/27/22 6/6/5
f 4/4/2 23/30/24 22/29/23 3/3/3
f 25/32/25 24/31/26 13/18/19 18/24/18
f 26/86/27 25/32/25 18/24/18 23/85/24
f 27/34/28 26/33/27 23/30/24 4/4/2
f 28/35/29 27/34/28 4/4/2 1/1/1
f 11/13/11 29/36/30 28/35/29 1/1/1
f 9/14/10 30/37/31 29/36/30 11/13/11
f 10/11/9 31/39/32 30/38/31 9/10/10
f 20/26/21 32/40/33 31/39/32 10/11/9
f 15/20/15 33/41/34 32/40/33 20/26/21
f 13/16/14 24/42/35 33/41/34 15/20/15
f 34/43/36 37/46/37 36/45/38 35/44/39
f 37/46/37 39/48/40 38/47/41 36/45/38
f 39/48/40 41/50/42 40/49/43 38/47/41
f 41/51/42 43/54/44 42/53/45 40/52/43
f 37/46/37 34/43/36 44/55/46 39/48/40
f 41/50/42 39/48/40 44/55/46 43/56/44
f 47/61/47 48/62/48 46/58/49 45/57/50
f 49/63/51 47/64/47 45/94/50
f 50/93/52 49/63/51 45/94/50
f 51/66/53 50/65/52 45/59/50 46/60/54
f 52/67/55 53/68/56 48/62/48 47/61/47
f 54/69/57 52/70/55 47/64/47 49/63/51
f 55/71/58 54/69/57 49/63/51 50/93/52
f 56/72/59 55/92/58 50/65/52 51/66/53
f 40/52/43 42/53/45 53/68/56 52/67/55
f 38/47/41 40/49/43 52/70/55 54/69/57
f 36/45/38 38/47/41 54/69/57 55/71/58
f 35/44/39 36/45/38 55/71/58 56/90/59
f 25/74/25 51/66/53 46/60/54 24/73/26
f 26/91/27 56/72/59 51/66/53 25/74/25
f 27/76/28 35/44/39 56/90/59 26/75/27
f 28/77/29 34/43/36 35/44/39 27/76/28
f 44/55/46 34/43/36 28/77/29 29/78/30
f 43/56/44 44/55/46 29/78/30 30/79/31
f 42/53/45 43/54/44 30/81/31 31/80/32
f 53/68/56 42/53/45 31/80/32 32/82/33
f 48/62/48 53/68/56 32/82/33 33/83/34
f 46/58/49 48/62/48 33/83/34 24/84/35
