# This file uses meters as units for non-parametric coordinates.

g default
v -6.852411 37.347631 33.568112
v -12.319057 33.849027 31.002424
v -17.853543 43.534360 27.379644
v -9.685523 49.343680 30.204415
v -14.912552 27.659873 29.298765
v -23.566906 27.154842 22.350173
v -13.780446 17.059379 30.054804
v -19.501739 14.280657 25.937817
v -7.786322 14.704545 37.393770
v -10.509995 11.635114 33.317796
v -6.402184 26.173836 33.540136
v -28.818919 5.008660 0.000000
v -15.879180 -1.481392 -0.000000
v -37.163583 34.848634 -0.000000
v -28.818919 57.125904 -0.000000
v -15.879180 65.646059 -0.000000
v -27.827044 7.083856 12.998927
v -15.332662 3.058314 15.299500
v -35.884511 34.550941 12.585710
v -27.827044 56.324576 12.785504
v -15.332662 64.272745 13.150943
v -22.922438 9.595478 20.621320
v -12.630229 7.521195 25.532021
v -29.559750 31.966063 19.916557
v -22.922438 52.163229 22.381462
v -12.630229 58.020641 26.439222
v 0.000000 72.649858 -0.000000
v 0.000000 70.834531 12.854913
v -0.000000 61.861476 28.089165
v 0.000000 51.708498 33.574516
v 1.159765 40.161374 34.168275
v 1.859671 26.757873 33.102407
v 0.000000 14.590230 40.659173
v 0.000000 8.114176 35.089408
v 0.000000 4.818056 27.832212
v 0.000000 -1.099800 16.116950
v -0.000000 -4.734612 -0.000000
v 9.171940 37.262943 32.661738
v 9.685523 49.143377 30.849704
v 18.077880 41.980361 25.203496
v 14.638586 33.645723 30.057943
v 23.023127 25.051353 26.069737
v 18.310707 26.000770 27.674327
v 19.501739 14.004363 25.915681
v 13.301207 15.506293 31.252087
v 10.509995 11.541528 33.293799
v 7.786322 14.654490 37.398896
v 10.121526 26.131571 32.916102
v 28.818919 4.462390 -0.000000
v 15.879180 -1.681158 0.000000
v 37.163583 32.440462 -0.000000
v 28.818919 55.563627 0.000000
v 15.879180 64.981791 -0.000000
v 27.827044 6.855574 12.982795
v 15.332662 2.981958 15.281100
v 35.884511 32.623868 12.632656
v 27.827044 55.192690 12.878832
v 15.332662 63.854962 13.182524
v 22.922438 9.346090 20.598150
v 12.630229 7.400917 25.488637
v 29.559750 30.816895 20.017394
v 22.922438 51.417704 22.569160
v 12.630229 57.703659 26.618869
v -6.852411 37.347631 -33.568112
v -9.685523 49.343680 -30.204415
v -17.853543 43.534360 -27.379644
v -12.319057 33.849027 -31.002424
v -23.566906 27.154842 -22.350173
v -14.912552 27.659873 -29.298765
v -19.501739 14.280657 -25.937817
v -13.780446 17.059379 -30.054804
v -10.509995 11.635114 -33.317796
v -7.786322 14.704545 -37.393770
v -6.402184 26.173836 -33.540136
v -27.827044 7.083856 -12.998927
v -15.332662 3.058314 -15.299500
v -35.884511 34.550941 -12.585710
v -27.827044 56.324576 -12.785504
v -15.332662 64.272745 -13.150943
v -22.922438 9.595478 -20.621320
v -12.630229 7.521195 -25.532021
v -29.559750 31.966063 -19.916557
v -22.922438 52.163229 -22.381462
v -12.630229 58.020641 -26.439222
v -0.000000 70.834531 -12.854913
v -0.000000 61.861476 -28.089165
v 0.000000 51.708498 -33.574516
v 1.159765 40.161374 -34.168275
v 1.859671 26.757873 -33.102407
v -0.000000 14.590230 -40.659173
v 0.000000 8.114176 -35.089408
v 0.000000 4.818056 -27.832212
v 0.000000 -1.099800 -16.116950
v 9.171940 37.262943 -32.661738
v 14.638586 33.645723 -30.057943
v 18.077880 41.980361 -25.203496
v 9.685523 49.143377 -30.849704
v 18.310707 26.000770 -27.674327
v 23.023127 25.051353 -26.069737
v 13.301207 15.506293 -31.252087
v 19.501739 14.004363 -25.915681
v 7.786322 14.654490 -37.398896
v 10.509995 11.541528 -33.293799
v 10.121526 26.131571 -32.916102
v 27.827044 6.855574 -12.982795
v 15.332662 2.981958 -15.281100
v 35.884511 32.623868 -12.632656
v 27.827044 55.192690 -12.878832
v 15.332662 63.854962 -13.182524
v 22.922438 9.346090 -20.598150
v 12.630229 7.400917 -25.488637
v 29.559750 30.816895 -20.017394
v 22.922438 51.417704 -22.569160
v 12.630229 57.703659 -26.618869
vt 0.268011 0.170091
vt 0.228167 0.207896
vt 0.293367 0.236645
vt 0.305693 0.195266
vt 0.380190 0.231404
vt 0.356717 0.192154
vt 0.454721 0.166344
vt 0.404247 0.133184
vt 0.822220 0.031403
vt 0.749332 0.122186
vt 0.862430 0.099143
vt 0.893356 0.026836
vt 0.315755 0.135991
vt 0.383889 0.078546
vt 0.689625 0.302383
vt 0.723927 0.439059
vt 0.841422 0.440981
vt 0.824446 0.305802
vt 0.440678 0.404291
vt 0.464043 0.550458
vt 0.662723 0.522502
vt 0.641216 0.352557
vt 0.293145 0.418549
vt 0.286556 0.561617
vt 0.177063 0.410761
vt 0.165226 0.560421
vt 0.730328 0.189103
vt 0.847789 0.191799
vt 0.385959 0.270361
vt 0.488593 0.192726
vt 0.274009 0.288781
vt 0.197027 0.250676
vt 0.009855 0.395145
vt 0.016422 0.554505
vt 0.144181 0.216956
vt 0.186633 0.169823
vt 0.220843 0.148852
vt 0.286592 0.106479
vt 0.374852 0.045951
vt 0.984656 0.107540
vt 0.984656 0.022537
vt 0.984656 0.197823
vt 0.984656 0.310051
vt 0.984656 0.442472
vt 0.268011 0.170091
vt 0.305693 0.195266
vt 0.293367 0.236645
vt 0.228167 0.207896
vt 0.356717 0.192154
vt 0.380190 0.231404
vt 0.404247 0.133184
vt 0.454721 0.166344
vt 0.822220 0.031403
vt 0.893356 0.026836
vt 0.862430 0.099143
vt 0.749332 0.122186
vt 0.315755 0.135991
vt 0.383889 0.078546
vt 0.689625 0.302383
vt 0.824446 0.305802
vt 0.841422 0.440981
vt 0.723927 0.439059
vt 0.440678 0.404291
vt 0.641216 0.352557
vt 0.662723 0.522502
vt 0.464043 0.550458
vt 0.293145 0.418549
vt 0.286556 0.561617
vt 0.177063 0.410761
vt 0.165226 0.560421
vt 0.730328 0.189103
vt 0.847789 0.191799
vt 0.385959 0.270361
vt 0.488593 0.192726
vt 0.274009 0.288781
vt 0.197027 0.250676
vt 0.009855 0.395145
vt 0.016422 0.554505
vt 0.144181 0.216956
vt 0.186633 0.169823
vt 0.220843 0.148852
vt 0.286592 0.106479
vt 0.374852 0.045951
vt 0.984656 0.022537
vt 0.984656 0.107540
vt 0.984656 0.197823
vt 0.984656 0.310051
vt 0.984656 0.442472
vt 0.268011 0.170091
vt 0.228167 0.207896
vt 0.293367 0.236645
vt 0.305693 0.195266
vt 0.380190 0.231404
vt 0.356717 0.192154
vt 0.454721 0.166344
vt 0.404247 0.133184
vt 0.822220 0.031403
vt 0.749332 0.122186
vt 0.862430 0.099143
vt 0.893356 0.026836
vt 0.315755 0.135991
vt 0.383889 0.078546
vt 0.689625 0.302383
vt 0.723927 0.439059
vt 0.841422 0.440981
vt 0.824446 0.305802
vt 0.440678 0.404291
vt 0.464043 0.550458
vt 0.662723 0.522502
vt 0.641216 0.352557
vt 0.293145 0.418549
vt 0.286556 0.561617
vt 0.177063 0.410761
vt 0.165226 0.560421
vt 0.730328 0.189103
vt 0.847789 0.191799
vt 0.385959 0.270361
vt 0.488593 0.192726
vt 0.274009 0.288781
vt 0.197027 0.250676
vt 0.009855 0.395145
vt 0.016422 0.554505
vt 0.144181 0.216956
vt 0.186633 0.169823
vt 0.220843 0.148852
vt 0.286592 0.106479
vt 0.374852 0.045951
vt 0.984656 0.107540
vt 0.984656 0.022537
vt 0.984656 0.197823
vt 0.984656 0.310051
vt 0.984656 0.442472
vt 0.268011 0.170091
vt 0.305693 0.195266
vt 0.293367 0.236645
vt 0.228167 0.207896
vt 0.356717 0.192154
vt 0.380190 0.231404
vt 0.404247 0.133184
vt 0.454721 0.166344
vt 0.822220 0.031403
vt 0.893356 0.026836
vt 0.862430 0.099143
vt 0.749332 0.122186
vt 0.315755 0.135991
vt 0.383889 0.078546
vt 0.689625 0.302383
vt 0.824446 0.305802
vt 0.841422 0.440981
vt 0.723927 0.439059
vt 0.440678 0.404291
vt 0.641216 0.352557
vt 0.662723 0.522502
vt 0.464043 0.550458
vt 0.293145 0.418549
vt 0.286556 0.561617
vt 0.177063 0.410761
vt 0.165226 0.560421
vt 0.730328 0.189103
vt 0.847789 0.191799
vt 0.385959 0.270361
vt 0.488593 0.192726
vt 0.274009 0.288781
vt 0.197027 0.250676
vt 0.009855 0.395145
vt 0.016422 0.554505
vt 0.144181 0.216956
vt 0.186633 0.169823
vt 0.220843 0.148852
vt 0.286592 0.106479
vt 0.374852 0.045951
vt 0.984656 0.022537
vt 0.984656 0.107540
vt 0.984656 0.197823
vt 0.984656 0.310051
vt 0.984656 0.442472
vn -0.257020 0.052510 0.964978
vn -0.363128 0.230796 0.902702
vn -0.517222 0.079898 0.852114
vn -0.508822 0.019219 0.860657
vn -0.599325 -0.031477 0.799887
vn -0.584490 0.026794 0.810959
vn -0.621606 -0.214606 0.753359
vn -0.624137 0.072842 0.777912
vn -0.480260 -0.601629 0.638273
vn -0.419043 0.000906 0.907966
vn -0.298313 0.180323 0.937279
vn -0.813936 -0.492676 0.307862
vn -0.822738 -0.544361 0.163625
vn -0.297869 -0.923523 0.241617
vn -0.303715 -0.895551 0.325185
vn -0.953740 0.013624 0.300325
vn -0.994290 0.002699 0.106676
vn -0.787634 0.531365 0.311903
vn -0.817730 0.565957 0.104933
vn -0.446992 0.842636 0.300270
vn -0.465243 0.878071 0.111985
vn -0.648225 -0.444846 0.617993
vn -0.349744 -0.796837 0.492676
vn -0.732238 -0.016623 0.680846
vn -0.637637 0.367099 0.677242
vn -0.412267 0.638034 0.650345
vn 0.013934 0.950813 0.309451
vn 0.016794 0.991858 0.126237
vn 0.005714 0.760703 0.649075
vn -0.013517 0.290300 0.956840
vn 0.026226 0.057380 0.998008
vn 0.046048 0.204206 0.977844
vn -0.000908 0.046567 0.998915
vn -0.002756 -0.810232 0.586102
vn -0.003163 -0.886434 0.462844
vn -0.003728 -0.942115 0.335269
vn -0.004026 -0.966287 0.257437
vn 0.354265 0.070033 0.932519
vn 0.542801 0.100664 0.833807
vn 0.524019 0.120250 0.843175
vn 0.400249 0.206953 0.892733
vn 0.550512 0.046165 0.833549
vn 0.625428 -0.052525 0.778512
vn 0.627845 -0.008080 0.778296
vn 0.644650 -0.311990 0.697918
vn 0.407555 -0.017553 0.913012
vn 0.443491 -0.653506 0.613388
vn 0.388771 0.133728 0.911578
vn 0.799867 -0.509059 0.317918
vn 0.293838 -0.897468 0.328953
vn 0.286822 -0.924858 0.249742
vn 0.803037 -0.568586 0.178440
vn 0.954318 0.014601 0.298435
vn 0.994338 -0.004449 0.106172
vn 0.802473 0.518579 0.295150
vn 0.835037 0.543153 0.087743
vn 0.474148 0.832324 0.287090
vn 0.497852 0.861840 0.096822
vn 0.654173 -0.467704 0.594400
vn 0.342680 -0.800589 0.491556
vn 0.732037 0.003680 0.681255
vn 0.649018 0.361518 0.669388
vn 0.440210 0.616864 0.652452
vn -0.257020 0.052510 -0.964978
vn -0.508822 0.019219 -0.860657
vn -0.517221 0.079898 -0.852114
vn -0.363128 0.230795 -0.902702
vn -0.584490 0.026794 -0.810959
vn -0.599325 -0.031477 -0.799887
vn -0.624137 0.072842 -0.777912
vn -0.621606 -0.214606 -0.753359
vn -0.419043 0.000906 -0.907966
vn -0.480260 -0.601629 -0.638273
vn -0.298313 0.180323 -0.937279
vn -0.813936 -0.492676 -0.307862
vn -0.303715 -0.895551 -0.325185
vn -0.297869 -0.923523 -0.241617
vn -0.822738 -0.544361 -0.163625
vn -0.953740 0.013624 -0.300325
vn -0.994290 0.002699 -0.106676
vn -0.787634 0.531365 -0.311903
vn -0.817730 0.565957 -0.104933
vn -0.446992 0.842636 -0.300270
vn -0.465243 0.878071 -0.111984
vn -0.648225 -0.444846 -0.617993
vn -0.349744 -0.796837 -0.492676
vn -0.732238 -0.016623 -0.680846
vn -0.637637 0.367099 -0.677242
vn -0.412267 0.638034 -0.650345
vn 0.013934 0.950813 -0.309451
vn 0.016794 0.991858 -0.126237
vn 0.005714 0.760703 -0.649075
vn -0.013517 0.290300 -0.956840
vn 0.026226 0.057380 -0.998008
vn 0.046049 0.204206 -0.977844
vn -0.000908 0.046567 -0.998915
vn -0.002756 -0.810232 -0.586102
vn -0.003163 -0.886434 -0.462844
vn -0.003728 -0.942115 -0.335269
vn -0.004026 -0.966287 -0.257437
vn 0.354265 0.070033 -0.932519
vn 0.400249 0.206953 -0.892733
vn 0.524019 0.120250 -0.843175
vn 0.542801 0.100664 -0.833807
vn 0.625428 -0.052525 -0.778512
vn 0.550512 0.046165 -0.833550
vn 0.644649 -0.311990 -0.697918
vn 0.627845 -0.008080 -0.778296
vn 0.443491 -0.653506 -0.613388
vn 0.407554 -0.017553 -0.913012
vn 0.388771 0.133728 -0.911578
vn 0.799867 -0.509058 -0.317918
vn 0.803037 -0.568586 -0.178440
vn 0.286822 -0.924858 -0.249742
vn 0.293838 -0.897468 -0.328953
vn 0.954318 0.014601 -0.298435
vn 0.994338 -0.004449 -0.106172
vn 0.802473 0.518579 -0.295150
vn 0.835037 0.543153 -0.087743
vn 0.474148 0.832324 -0.287090
vn 0.497852 0.861840 -0.096822
vn 0.654173 -0.467704 -0.594400
vn 0.342680 -0.800589 -0.491556
vn 0.732037 0.003680 -0.681255
vn 0.649018 0.361518 -0.669388
vn 0.440210 0.616864 -0.652452
s 1
g pPlane1
f 1/1/1 4/2/2 3/3/3 2/4/4
f 2/4/4 3/3/3 6/5/5 5/6/6
f 5/6/6 6/5/5 8/7/7 7/8/8
f 7/9/8 8/10/7 10/11/9 9/12/10
f 2/4/4 5/6/6 11/13/11 1/1/1
f 7/8/8 9/14/10 11/13/11 5/6/6
f 17/15/12 12/16/13 13/17/14 18/18/15
f 19/19/16 14/20/17 12/21/13 17/22/12
f 20/23/18 15/24/19 14/20/17 19/19/16
f 21/25/20 16/26/21 15/24/19 20/23/18
f 22/27/22 17/15/12 18/18/15 23/28/23
f 24/29/24 19/19/16 17/22/12 22/30/22
f 25/31/25 20/23/18 19/19/16 24/29/24
f 26/32/26 21/25/20 20/23/18 25/31/25
f 8/10/7 22/27/22 23/28/23 10/11/9
f 6/5/5 24/29/24 22/30/22 8/7/7
f 3/3/3 25/31/25 24/29/24 6/5/5
f 4/2/2 26/32/26 25/31/25 3/3/3
f 28/33/27 27/34/28 16/26/21 21/25/20
f 29/35/29 28/33/27 21/25/20 26/32/26
f 30/36/30 29/35/29 26/32/26 4/2/2
f 31/37/31 30/36/30 4/2/2 1/1/1
f 11/13/11 32/38/32 31/37/31 1/1/1
f 9/14/10 33/39/33 32/38/32 11/13/11
f 10/11/9 34/40/34 33/41/33 9/12/10
f 23/28/23 35/42/35 34/40/34 10/11/9
f 18/18/15 36/43/36 35/42/35 23/28/23
f 13/17/14 37/44/37 36/43/36 18/18/15
f 38/45/38 41/46/39 40/47/40 39/48/41
f 41/46/39 43/49/42 42/50/43 40/47/40
f 43/49/42 45/51/44 44/52/45 42/50/43
f 45/53/44 47/54/46 46/55/47 44/56/45
f 41/46/39 38/45/38 48/57/48 43/49/42
f 45/51/44 43/49/42 48/57/48 47/58/46
f 54/59/49 55/60/50 50/61/51 49/62/52
f 56/63/53 54/64/49 49/65/52 51/66/54
f 57/67/55 56/63/53 51/66/54 52/68/56
f 58/69/57 57/67/55 52/68/56 53/70/58
f 59/71/59 60/72/60 55/60/50 54/59/49
f 61/73/61 59/74/59 54/64/49 56/63/53
f 62/75/62 61/73/61 56/63/53 57/67/55
f 63/76/63 62/75/62 57/67/55 58/69/57
f 44/56/45 46/55/47 60/72/60 59/71/59
f 42/50/43 44/52/45 59/74/59 61/73/61
f 40/47/40 42/50/43 61/73/61 62/75/62
f 39/48/41 40/47/40 62/75/62 63/76/63
f 28/77/27 58/69/57 53/70/58 27/78/28
f 29/79/29 63/76/63 58/69/57 28/77/27
f 30/80/30 39/48/41 63/76/63 29/79/29
f 31/81/31 38/45/38 39/48/41 30/80/30
f 48/57/48 38/45/38 31/81/31 32/82/32
f 47/58/46 48/57/48 32/82/32 33/83/33
f 46/55/47 47/54/46 33/84/33 34/85/34
f 60/72/60 46/55/47 34/85/34 35/86/35
f 55/60/50 60/72/60 35/86/35 36/87/36
f 50/61/51 55/60/50 36/87/36 37/88/37
s 5
f 64/89/64 67/92/65 66/91/66 65/90/67
f 67/92/65 69/94/68 68/93/69 66/91/66
f 69/94/68 71/96/70 70/95/71 68/93/69
f 71/97/70 73/100/72 72/99/73 70/98/71
f 67/92/65 64/89/64 74/101/74 69/94/68
f 71/96/70 69/94/68 74/101/74 73/102/72
f 75/103/75 76/106/76 13/105/77 12/104/78
f 77/107/79 75/110/75 12/109/78 14/108/80
f 78/111/81 77/107/79 14/108/80 15/112/82
f 79/113/83 78/111/81 15/112/82 16/114/84
f 80/115/85 81/116/86 76/106/76 75/103/75
f 82/117/87 80/118/85 75/110/75 77/107/79
f 83/119/88 82/117/87 77/107/79 78/111/81
f 84/120/89 83/119/88 78/111/81 79/113/83
f 70/98/71 72/99/73 81/116/86 80/115/85
f 68/93/69 70/95/71 80/118/85 82/117/87
f 66/91/66 68/93/69 82/117/87 83/119/88
f 65/90/67 66/91/66 83/119/88 84/120/89
f 85/121/90 79/113/83 16/114/84 27/122/91
f 86/123/92 84/120/89 79/113/83 85/121/90
f 87/124/93 65/90/67 84/120/89 86/123/92
f 88/125/94 64/89/64 65/90/67 87/124/93
f 74/101/74 64/89/64 88/125/94 89/126/95
f 73/102/72 74/101/74 89/126/95 90/127/96
f 72/99/73 73/100/72 90/129/96 91/128/97
f 81/116/86 72/99/73 91/128/97 92/130/98
f 76/106/76 81/116/86 92/130/98 93/131/99
f 13/105/77 76/106/76 93/131/99 37/132/100
f 94/133/101 97/136/102 96/135/103 95/134/104
f 95/134/104 96/135/103 99/138/105 98/137/106
f 98/137/106 99/138/105 101/140/107 100/139/108
f 100/141/108 101/144/107 103/143/109 102/142/110
f 95/134/104 98/137/106 104/145/111 94/133/101
f 100/139/108 102/146/110 104/145/111 98/137/106
f 105/147/112 49/150/113 50/149/114 106/148/115
f 107/151/116 51/154/117 49/153/113 105/152/112
f 108/155/118 52/156/119 51/154/117 107/151/116
f 109/157/120 53/158/121 52/156/119 108/155/118
f 110/159/122 105/147/112 106/148/115 111/160/123
f 112/161/124 107/151/116 105/152/112 110/162/122
f 113/163/125 108/155/118 107/151/116 112/161/124
f 114/164/126 109/157/120 108/155/118 113/163/125
f 101/144/107 110/159/122 111/160/123 103/143/109
f 99/138/105 112/161/124 110/162/122 101/140/107
f 96/135/103 113/163/125 112/161/124 99/138/105
f 97/136/102 114/164/126 113/163/125 96/135/103
f 85/165/90 27/166/91 53/158/121 109/157/120
f 86/167/92 85/165/90 109/157/120 114/164/126
f 87/168/93 86/167/92 114/164/126 97/136/102
f 88/169/94 87/168/93 97/136/102 94/133/101
f 104/145/111 89/170/95 88/169/94 94/133/101
f 102/146/110 90/171/96 89/170/95 104/145/111
f 103/143/109 91/173/97 90/172/96 102/142/110
f 111/160/123 92/174/98 91/173/97 103/143/109
f 106/148/115 93/175/99 92/174/98 111/160/123
f 50/149/114 37/176/100 93/175/99 106/148/115
