# This file uses meters as units for non-parametric coordinates.

g default
v -5.397853 10.389181 -0.991502
v -8.971792 8.243357 -1.301880
v -8.345742 7.747281 -3.658662
v -5.084704 11.325331 -3.844811
v -10.827280 5.206755 0.418738
v -10.067432 4.202272 -2.336103
v -8.712367 2.086797 2.441012
v -10.234636 -0.034429 -0.029181
v -5.250197 1.470027 4.778538
v -5.665734 -0.218443 2.328332
v -4.945323 6.157209 5.193787
v -6.367262 2.884399 -8.427907
v -3.432459 3.013757 -8.462276
v -6.576533 1.600592 -6.917814
v -3.569800 0.954667 -6.217337
v -7.544955 3.070187 -7.833963
v -6.573586 4.652686 -8.469808
v -3.600265 5.794395 -8.784773
v -7.678329 0.967938 -3.924674
v -4.224825 -0.054040 -2.562102
v -8.762478 3.652521 -5.537151
v -7.403650 6.430273 -6.597666
v -4.111860 8.464547 -7.018351
v 0.275808 2.946899 -8.354659
v 0.247034 6.039884 -8.816154
v 0.189650 8.854993 -7.193662
v 0.035803 10.927167 -4.354293
v -0.159716 11.373433 -1.958305
v 0.089380 7.203980 6.300366
v -0.159716 1.258531 4.924694
v 0.060499 -1.220479 3.129934
v 0.218275 -0.532996 -2.066348
v 0.285564 0.670055 -5.925363
v 5.078422 10.361234 -0.959875
v 5.181017 11.262353 -3.804188
v 9.617025 8.668102 -3.813447
v 8.652362 8.192165 -1.245985
v 12.175997 3.058999 -1.945628
v 10.507851 5.200022 0.392525
v 10.244207 0.004804 0.000000
v 8.392936 2.101688 2.406341
v 5.780299 -0.256806 2.385954
v 4.930765 1.447109 4.795455
v 5.124084 6.141608 5.204576
v 6.764487 2.675664 -8.268555
v 3.905048 2.793253 -8.294925
v 7.076204 1.467642 -6.825360
v 4.106124 0.813108 -6.117836
v 7.945814 2.841115 -7.672910
v 6.933519 4.424825 -8.324921
v 4.032505 5.571669 -8.647427
v 8.130601 0.867806 -3.871937
v 4.665449 -0.132750 -2.519773
v 9.395224 3.253568 -5.327957
v 7.871041 6.348671 -6.489071
v 4.481241 8.309047 -6.923783
vt 0.509023 0.065335
vt 0.326350 0.283378
vt 0.310657 0.379677
vt 0.210878 0.346213
vt 0.563663 0.125528
vt 0.460351 0.355575
vt 0.457912 0.202435
vt 0.553744 0.296803
vt 0.822220 0.031403
vt 0.893356 0.026836
vt 0.862430 0.099143
vt 0.749332 0.122186
vt 0.571010 0.065393
vt 0.625181 0.062303
vt 0.723927 0.439059
vt 0.841422 0.440981
vt 0.438366 0.647293
vt 0.178623 0.658665
vt 0.689625 0.302383
vt 0.824446 0.305802
vt 0.454075 0.527840
vt 0.654613 0.476107
vt 0.306542 0.542099
vt 0.190460 0.534310
vt 0.730328 0.189103
vt 0.847789 0.191799
vt 0.439399 0.432255
vt 0.609621 0.354620
vt 0.296014 0.450675
vt 0.195455 0.429859
vt 0.029819 0.652749
vt 0.023252 0.518694
vt 0.049873 0.403998
vt 0.097041 0.300281
vt 0.497177 0.007254
vt 0.563511 0.001950
vt 0.623736 0.004293
vt 0.984656 0.022537
vt 0.984656 0.107540
vt 0.984656 0.197823
vt 0.984656 0.310051
vt 0.984656 0.442472
vt 0.260376 0.255059
vt 0.210878 0.346213
vt 0.310657 0.379677
vt 0.528636 0.103861
vt 0.460351 0.355575
vt 0.563663 0.125528
vt 0.553744 0.296803
vt 0.616755 0.109955
vt 0.822220 0.031403
vt 0.749332 0.122186
vt 0.862430 0.099143
vt 0.893356 0.026836
vt 0.571010 0.065393
vt 0.625181 0.062303
vt 0.723927 0.439059
vt 0.841422 0.440981
vt 0.484504 0.643103
vt 0.178623 0.658665
vt 0.689625 0.302383
vt 0.824446 0.305802
vt 0.454075 0.527840
vt 0.654613 0.476107
vt 0.306542 0.542099
vt 0.190460 0.534310
vt 0.730328 0.189103
vt 0.847789 0.191799
vt 0.439399 0.432255
vt 0.609621 0.354620
vt 0.296014 0.450675
vt 0.195455 0.429859
vt 0.029819 0.652749
vt 0.023252 0.518694
vt 0.049873 0.403998
vt 0.097041 0.300281
vt 0.497177 0.007254
vt 0.563511 0.001950
vt 0.623736 0.004293
vt 0.984656 0.107540
vt 0.984656 0.022537
vt 0.984656 0.197823
vt 0.984656 0.310051
vt 0.984656 0.442472
vt 0.170546 0.207008
vt 0.170546 0.207008
vt 0.509023 0.065335
vt 0.400951 0.272407
vt 0.457912 0.202435
vt 0.326350 0.283378
vt 0.260376 0.255059
vt 0.400951 0.272407
vt 0.616755 0.109955
vt 0.528636 0.103861
vn -0.327508 0.849156 0.414334
vn -0.316848 0.883566 -0.344847
vn -0.753482 0.532056 -0.386239
vn -0.659171 0.687373 0.304979
vn -0.957675 -0.033850 -0.285855
vn -0.805836 0.361812 0.468743
vn -0.618898 -0.785329 -0.014956
vn -0.684469 -0.191770 0.703368
vn -0.207963 -0.950824 0.229532
vn -0.327228 -0.307871 0.893385
vn -0.335990 0.484134 0.807914
vn -0.315222 -0.841686 -0.438406
vn -0.067138 -0.466918 -0.881748
vn 0.004691 -0.738440 -0.674303
vn -0.062993 -0.893794 -0.444033
vn -0.831582 -0.190635 -0.521661
vn -0.434003 0.280318 -0.856191
vn -0.124884 0.286148 -0.950012
vn -0.006693 -0.114093 -0.993448
vn -0.418551 -0.846049 -0.330176
vn -0.102957 -0.977932 -0.181793
vn -0.883399 -0.099489 -0.457940
vn -0.653775 0.466645 -0.595668
vn -0.256223 0.652427 -0.713224
vn 0.022872 0.248861 -0.968269
vn 0.016097 -0.134789 -0.990744
vn 0.018698 0.672594 -0.739776
vn 0.011143 0.922632 -0.385521
vn -0.001776 0.920203 0.391438
vn 0.003700 0.584037 0.811718
vn -0.007127 -0.384695 0.923016
vn -0.004026 -0.969254 0.246029
vn -0.005694 -0.986593 -0.163101
vn -0.008635 -0.891967 -0.452018
vn -0.005323 -0.733895 -0.679242
vn 0.298809 0.849331 0.435145
vn 0.596531 0.685717 0.417065
vn 0.733287 0.586841 -0.343377
vn 0.282190 0.903325 -0.323067
vn 0.729515 0.378331 0.569801
vn 0.985673 -0.129169 -0.108465
vn 0.637446 -0.178918 0.749434
vn 0.586101 -0.798789 0.135725
vn 0.311102 -0.318803 0.895310
vn 0.224443 -0.940172 0.256325
vn 0.354602 0.476896 0.804256
vn 0.301960 -0.850319 -0.431020
vn 0.055484 -0.900060 -0.432220
vn -0.011335 -0.740396 -0.672075
vn 0.066178 -0.472483 -0.878852
vn 0.807720 -0.175171 -0.562942
vn 0.432188 0.263118 -0.862544
vn 0.149245 0.270296 -0.951139
vn 0.026867 -0.120680 -0.992328
vn 0.336752 -0.886319 -0.317864
vn 0.100863 -0.980544 -0.168406
vn 0.781831 -0.175629 -0.598244
vn 0.584477 0.394074 -0.709290
vn 0.226253 0.628521 -0.744158
s 1
g pCylinder5
f 1/91/1 4/4/2 3/3/3 2/2/4
f 2/2/4 3/3/3 6/6/5 5/92/6
f 5/92/6 6/6/5 8/8/7 7/7/8
f 7/9/8 8/12/7 10/11/9 9/10/10
f 2/94/4 5/5/6 11/13/11 1/1/1
f 7/93/8 9/14/10 11/13/11 5/5/6
f 14/19/12 12/15/13 13/16/14 15/20/15
f 16/21/16 12/17/13 14/22/12
f 17/23/17 12/17/13 16/21/16
f 18/24/18 13/18/19 12/17/13 17/23/17
f 19/25/20 14/19/12 15/20/15 20/26/21
f 21/27/22 16/21/16 14/22/12 19/28/20
f 22/29/23 17/23/17 16/21/16 21/27/22
f 23/30/24 18/24/18 17/23/17 22/29/23
f 8/12/7 19/25/20 20/26/21 10/11/9
f 6/6/5 21/27/22 19/28/20 8/8/7
f 3/3/3 22/29/23 21/27/22 6/6/5
f 4/4/2 23/30/24 22/29/23 3/3/3
f 25/32/25 24/31/26 13/18/19 18/24/18
f 26/33/27 25/32/25 18/24/18 23/30/24
f 27/34/28 26/33/27 23/30/24 4/4/2
f 28/85/29 27/34/28 4/4/2 1/91/1
f 11/13/11 29/36/30 28/35/29 1/1/1
f 9/14/10 30/37/31 29/36/30 11/13/11
f 10/11/9 31/39/32 30/38/31 9/10/10
f 20/26/21 32/40/33 31/39/32 10/11/9
f 15/20/15 33/41/34 32/40/33 20/26/21
f 13/16/14 24/42/35 33/41/34 15/20/15
f 34/43/36 37/90/37 36/45/38 35/44/39
f 37/90/37 39/88/40 38/47/41 36/45/38
f 39/88/40 41/89/42 40/49/43 38/47/41
f 41/51/42 43/54/44 42/53/45 40/52/43
f 37/46/37 34/87/36 44/55/46 39/48/40
f 41/50/42 39/48/40 44/55/46 43/56/44
f 47/61/47 48/62/48 46/58/49 45/57/50
f 49/63/51 47/64/47 45/59/50
f 50/65/52 49/63/51 45/59/50
f 51/66/53 50/65/52 45/59/50 46/60/54
f 52/67/55 53/68/56 48/62/48 47/61/47
f 54/69/57 52/70/55 47/64/47 49/63/51
f 55/71/58 54/69/57 49/63/51 50/65/52
f 56/72/59 55/71/58 50/65/52 51/66/53
f 40/52/43 42/53/45 53/68/56 52/67/55
f 38/47/41 40/49/43 52/70/55 54/69/57
f 36/45/38 38/47/41 54/69/57 55/71/58
f 35/44/39 36/45/38 55/71/58 56/72/59
f 25/74/25 51/66/53 46/60/54 24/73/26
f 26/75/27 56/72/59 51/66/53 25/74/25
f 27/76/28 35/44/39 56/72/59 26/75/27
f 28/86/29 34/43/36 35/44/39 27/76/28
f 44/55/46 34/87/36 28/77/29 29/78/30
f 43/56/44 44/55/46 29/78/30 30/79/31
f 42/53/45 43/54/44 30/81/31 31/80/32
f 53/68/56 42/53/45 31/80/32 32/82/33
f 48/62/48 53/68/56 32/82/33 33/83/34
f 46/58/49 48/62/48 33/83/34 24/84/35
