# This file uses meters as units for non-parametric coordinates.

mtllib Coin.mtl
g default
v -5.215485 -24.214048 -10.172261
v -5.215485 -18.532804 -18.675338
v -5.215485 0.000000 -0.142394
v -5.215485 -10.029866 -24.356754
v -5.215485 -0.000013 -26.351967
v -5.215485 10.029866 -24.356754
v -5.215485 18.532804 -18.675338
v -5.215485 24.214022 -10.172261
v -5.215485 26.209420 -0.142404
v -5.215485 24.214048 9.887475
v -5.215485 18.532804 18.390555
v -5.215485 10.029866 24.071966
v -5.215485 0.000004 26.067179
v -5.215485 -10.029866 24.071966
v -5.215485 -18.532804 18.390555
v -5.215485 -24.214048 9.887475
v -5.215485 -26.209420 -0.142394
v 5.232740 -24.214048 -10.172261
v 5.232740 -18.532804 -18.675338
v 5.232740 -0.000000 -0.142394
v 5.232740 -10.029866 -24.356754
v 5.232740 -0.000013 -26.351967
v 5.232740 10.029866 -24.356754
v 5.232740 18.532804 -18.675338
v 5.232740 24.214022 -10.172261
v 5.232740 26.209420 -0.142404
v 5.232740 24.214048 9.887475
v 5.232740 18.532804 18.390555
v 5.232740 10.029866 24.071966
v 5.232740 0.000004 26.067179
v 5.232740 -10.029866 24.071966
v 5.232740 -18.532804 18.390555
v 5.232740 -24.214048 9.887475
v 5.232740 -26.209420 -0.142394
v -8.482050 -27.398150 -11.348774
v -6.888135 -25.148566 -10.486443
v -8.482050 -20.969843 -20.969972
v -6.870209 -19.240397 -19.310806
v -8.482050 -11.348780 -27.398493
v -6.856418 -10.409621 -25.202036
v -8.482050 -0.000015 -29.656073
v -6.848930 -0.000014 -27.268589
v -8.482050 11.348780 -27.398493
v -6.856418 10.409621 -25.202036
v -8.482050 20.969849 -20.969972
v -6.870209 19.240397 -19.310806
v -8.482050 27.398123 -11.348774
v -6.888135 25.148539 -10.486443
v -8.482050 29.655915 -0.000012
v -6.907408 27.232607 -0.068651
v -8.482050 27.398150 11.348776
v -6.925067 25.169203 10.357638
v -8.482050 20.969843 20.969980
v -6.938491 19.269596 19.202459
v -8.482050 11.348780 27.398493
v -6.945715 10.430286 25.114092
v -8.482050 0.000004 29.656073
v -6.945715 0.000004 27.188963
v -8.482050 -11.348780 27.398493
v -6.945715 -10.430286 25.114092
v -8.482050 -20.969843 20.969980
v -6.938491 -19.269596 19.202459
v -8.482050 -27.398150 11.348777
v -6.925067 -25.169203 10.357640
v -8.482050 -29.655915 -0.000000
v -6.907408 -27.232607 -0.068641
v -8.482050 -34.743634 -14.391260
v -6.394280 -36.102695 -14.954200
v -8.482050 -26.591633 -26.591603
v -6.394280 -27.631814 -27.631781
v -8.482050 -14.391297 -34.743610
v -6.394280 -14.954239 -36.102668
v -8.482050 -0.000019 -37.606224
v -6.394280 -0.000020 -39.077262
v -8.482050 14.391263 -34.743625
v -6.394280 14.954205 -36.102692
v -8.482050 26.591609 -26.591630
v -6.394280 27.631787 -27.631811
v -8.482050 34.743619 -14.391293
v -6.394280 36.102680 -14.954236
v -8.482050 37.606224 -0.000014
v -6.394280 39.077262 -0.000014
v -8.482050 34.743625 14.391269
v -6.394280 36.102680 14.954211
v -8.482050 26.591624 26.591612
v -6.394280 27.631802 27.631790
v -8.482050 14.391287 34.743622
v -6.394280 14.954229 36.102680
v -8.482050 0.000006 37.606224
v -6.394280 0.000006 39.077262
v -8.482050 -14.391273 34.743625
v -6.394280 -14.954215 36.102680
v -8.482050 -26.591618 26.591618
v -6.394280 -27.631796 27.631802
v -8.482050 -34.743622 14.391279
v -6.394280 -36.102680 14.954221
v -8.482050 -37.606224 -0.000000
v -6.394280 -39.077262 0.000000
v 6.394280 -36.102695 -14.954200
v 8.482050 -34.743634 -14.391260
v 6.394280 -27.631814 -27.631781
v 8.482050 -26.591633 -26.591603
v 6.394280 -14.954239 -36.102668
v 8.482050 -14.391297 -34.743610
v 6.394280 -0.000020 -39.077262
v 8.482050 -0.000019 -37.606224
v 6.394280 14.954205 -36.102692
v 8.482050 14.391263 -34.743625
v 6.394280 27.631787 -27.631811
v 8.482050 26.591609 -26.591630
v 6.394280 36.102680 -14.954236
v 8.482050 34.743619 -14.391293
v 6.394280 39.077262 -0.000014
v 8.482050 37.606224 -0.000014
v 6.394280 36.102680 14.954211
v 8.482050 34.743625 14.391269
v 6.394280 27.631802 27.631790
v 8.482050 26.591624 26.591612
v 6.394280 14.954229 36.102680
v 8.482050 14.391287 34.743622
v 6.394280 0.000006 39.077262
v 8.482050 0.000006 37.606224
v 6.394280 -14.954215 36.102680
v 8.482050 -14.391273 34.743625
v 6.394280 -27.631796 27.631802
v 8.482050 -26.591618 26.591618
v 6.394280 -36.102680 14.954221
v 8.482050 -34.743622 14.391279
v 6.394280 -39.077262 0.000000
v 8.482050 -37.606224 -0.000000
v 8.482050 -27.398150 -11.348774
v 6.891663 -25.145823 -10.485518
v 8.482050 -20.969843 -20.969972
v 6.873664 -19.238222 -19.308853
v 8.482050 -11.348780 -27.398493
v 6.859814 -10.408414 -25.199350
v 8.482050 -0.000015 -29.656073
v 6.852295 -0.000014 -27.265620
v 8.482050 11.348780 -27.398493
v 6.859814 10.408414 -25.199350
v 8.482050 20.969849 -20.969972
v 6.873664 19.238222 -19.308853
v 8.482050 27.398123 -11.348774
v 6.891663 25.145796 -10.485518
v 8.482050 29.655915 -0.000012
v 6.911009 27.229742 -0.068858
v 8.482050 27.398150 11.348776
v 6.928734 25.166645 10.356379
v 8.482050 20.969843 20.969980
v 6.942204 19.267687 19.200356
v 8.482050 11.348780 27.398493
v 6.949453 10.429267 25.111445
v 8.482050 0.000004 29.656073
v 6.949453 0.000004 27.186104
v 8.482050 -11.348780 27.398493
v 6.949453 -10.429267 25.111445
v 8.482050 -20.969843 20.969980
v 6.942204 -19.267687 19.200356
v 8.482050 -27.398150 11.348777
v 6.928734 -25.166645 10.356379
v 8.482050 -29.655915 -0.000000
v 6.911009 -27.229742 -0.068848
vt 0.708016 0.360122
vt 0.613304 0.296841
vt 0.501586 0.566550
vt 0.771298 0.454832
vt 0.793522 0.566550
vt 0.771298 0.678268
vt 0.708016 0.772978
vt 0.613304 0.836258
vt 0.501586 0.858484
vt 0.389868 0.836258
vt 0.295157 0.772978
vt 0.231874 0.678268
vt 0.209650 0.566550
vt 0.231874 0.454832
vt 0.295157 0.360122
vt 0.389868 0.296841
vt 0.501586 0.274616
vt 0.613304 0.296841
vt 0.708016 0.360122
vt 0.501586 0.566550
vt 0.771298 0.454832
vt 0.793522 0.566550
vt 0.771298 0.678268
vt 0.708016 0.772978
vt 0.613304 0.836258
vt 0.501586 0.858484
vt 0.389868 0.836258
vt 0.295157 0.772978
vt 0.231874 0.678268
vt 0.209650 0.566550
vt 0.231874 0.454832
vt 0.295157 0.360122
vt 0.389868 0.296841
vt 0.501586 0.274616
vt 0.626408 0.261375
vt 0.616803 0.286432
vt 0.715094 0.352240
vt 0.733574 0.332977
vt 0.500000 0.236227
vt 0.500765 0.263219
vt 0.780713 0.450602
vt 0.805179 0.440141
vt 0.803732 0.566550
vt 0.830325 0.566550
vt 0.780713 0.682497
vt 0.805179 0.692958
vt 0.715094 0.780859
vt 0.733574 0.800123
vt 0.616803 0.846667
vt 0.626408 0.871724
vt 0.500765 0.869881
vt 0.500000 0.896873
vt 0.384631 0.846897
vt 0.373592 0.871724
vt 0.286113 0.781184
vt 0.266426 0.800123
vt 0.220266 0.682728
vt 0.194822 0.692958
vt 0.197155 0.566550
vt 0.169675 0.566550
vt 0.220266 0.450372
vt 0.194822 0.440141
vt 0.286113 0.351915
vt 0.266426 0.332977
vt 0.384631 0.286202
vt 0.373592 0.261375
vt 0.660297 0.179557
vt 0.137122 0.036478
vt 0.500000 0.147672
vt 0.796191 0.270358
vt 0.886992 0.406252
vt 0.918877 0.566549
vt 0.886992 0.726847
vt 0.190542 0.036478
vt 0.796191 0.862741
vt 0.660298 0.953542
vt 0.500000 0.985427
vt 0.339703 0.953542
vt 0.203809 0.862741
vt 0.113008 0.726847
vt 0.190542 0.091807
vt 0.081122 0.566550
vt 0.113008 0.406252
vt 0.203809 0.270359
vt 0.339703 0.179557
vt 0.137122 0.091807
vt 0.660297 0.179557
vt 0.500000 0.147672
vt 0.243961 0.036478
vt 0.796191 0.270358
vt 0.243961 0.091807
vt 0.886992 0.406252
vt 0.918877 0.566549
vt 0.297380 0.036478
vt 0.886992 0.726847
vt 0.796191 0.862741
vt 0.297380 0.091807
vt 0.660298 0.953542
vt 0.350800 0.036478
vt 0.500000 0.985427
vt 0.350800 0.091807
vt 0.339703 0.953542
vt 0.404219 0.036478
vt 0.203809 0.862741
vt 0.404219 0.091807
vt 0.113008 0.726847
vt 0.457638 0.036478
vt 0.081122 0.566550
vt 0.113008 0.406252
vt 0.511057 0.036478
vt 0.203809 0.270359
vt 0.339703 0.179557
vt 0.626408 0.261375
vt 0.616793 0.286463
vt 0.500767 0.263251
vt 0.500000 0.236227
vt 0.733574 0.332977
vt 0.715072 0.352264
vt 0.805179 0.440141
vt 0.780683 0.450615
vt 0.830325 0.566550
vt 0.803699 0.566550
vt 0.805179 0.692958
vt 0.780683 0.682484
vt 0.733574 0.800123
vt 0.715072 0.780835
vt 0.626408 0.871724
vt 0.616793 0.846637
vt 0.500000 0.896873
vt 0.500767 0.869849
vt 0.373592 0.871724
vt 0.384645 0.846869
vt 0.266426 0.800123
vt 0.286137 0.781163
vt 0.194822 0.692958
vt 0.220296 0.682716
vt 0.169675 0.566550
vt 0.197187 0.566550
vt 0.194822 0.440141
vt 0.220296 0.450383
vt 0.266426 0.332977
vt 0.286137 0.351936
vt 0.373592 0.261375
vt 0.384645 0.286231
vt 0.335871 0.170253
vt 0.500023 0.137601
vt 0.196711 0.263237
vt 0.103726 0.402398
vt 0.071074 0.566550
vt 0.103726 0.730701
vt 0.196711 0.869862
vt 0.335872 0.962847
vt 0.500023 0.995498
vt 0.664175 0.962846
vt 0.803336 0.869862
vt 0.896320 0.730701
vt 0.928972 0.566549
vt 0.896320 0.402398
vt 0.803335 0.263237
vt 0.664174 0.170253
vt 0.500023 0.137601
vt 0.335871 0.170253
vt 0.196711 0.263237
vt 0.103726 0.402398
vt 0.071074 0.566550
vt 0.103726 0.730701
vt 0.196711 0.869862
vt 0.335872 0.962847
vt 0.500023 0.995498
vt 0.664175 0.962846
vt 0.803336 0.869862
vt 0.896320 0.730701
vt 0.928972 0.566549
vt 0.896320 0.402398
vt 0.803335 0.263237
vt 0.664174 0.170253
vt 0.511057 0.091807
vt 0.564477 0.036478
vt 0.564477 0.091807
vt 0.617896 0.036478
vt 0.617896 0.091807
vt 0.671315 0.036478
vt 0.671315 0.091807
vt 0.724734 0.036478
vt 0.724734 0.091807
vt 0.778154 0.036478
vt 0.778154 0.091807
vt 0.831573 0.036478
vt 0.831573 0.091807
vt 0.884992 0.036478
vt 0.884992 0.091807
vt 0.083703 0.036478
vt 0.938412 0.091807
vt 0.083703 0.091807
vt 0.938412 0.036478
vt 0.457638 0.091807
vn -0.989874 0.100156 0.100589
vn -0.989702 0.132085 0.055168
vn -1.000000 0.000000 -0.000000
vn -0.990009 0.053823 0.130325
vn -0.990064 0.000000 0.140620
vn -0.990009 -0.053823 0.130325
vn -0.989874 -0.100156 0.100589
vn -0.989702 -0.132085 0.055168
vn -0.989518 -0.144410 0.000472
vn -0.989353 -0.134627 -0.055279
vn -0.989230 -0.103754 -0.103247
vn -0.989167 -0.056369 -0.135538
vn -0.989153 0.000000 -0.146892
vn -0.989167 0.056369 -0.135538
vn -0.989230 0.103754 -0.103247
vn -0.989353 0.134627 -0.055279
vn -0.989518 0.144410 0.000472
vn 0.989860 0.131076 0.054747
vn 0.990032 0.099378 0.099808
vn 1.000000 -0.000000 0.000000
vn 0.990167 0.053400 0.129300
vn 0.990221 -0.000000 0.139509
vn 0.990167 -0.053400 0.129300
vn 0.990032 -0.099378 0.099808
vn 0.989860 -0.131075 0.054747
vn 0.989676 -0.143326 0.000469
vn 0.989511 -0.133633 -0.054870
vn 0.989387 -0.102997 -0.102493
vn 0.989325 -0.055961 -0.134554
vn 0.989310 0.000000 -0.145828
vn 0.989325 0.055961 -0.134554
vn 0.989387 0.102997 -0.102493
vn 0.989511 0.133633 -0.054870
vn 0.989675 0.143326 0.000469
vn -0.993775 0.103046 0.042353
vn -0.737039 0.624674 0.257986
vn -0.732314 0.481903 0.481129
vn -0.993625 0.079882 0.079546
vn -0.993936 0.109964 -0.000325
vn -0.742473 0.669876 -0.000770
vn -0.729072 0.262210 0.632219
vn -0.993510 0.043644 0.105038
vn -0.727887 0.000000 0.685697
vn -0.993465 0.000000 0.114139
vn -0.729072 -0.262209 0.632219
vn -0.993510 -0.043644 0.105038
vn -0.732315 -0.481903 0.481129
vn -0.993625 -0.079882 0.079546
vn -0.737038 -0.624674 0.257986
vn -0.993775 -0.103046 0.042353
vn -0.742473 -0.669875 -0.000769
vn -0.993936 -0.109964 -0.000325
vn -0.747735 -0.613180 -0.254761
vn -0.994081 -0.100262 -0.041850
vn -0.752083 -0.465655 -0.466408
vn -0.994192 -0.075941 -0.076258
vn -0.754909 -0.250726 -0.606010
vn -0.994253 -0.040854 -0.098954
vn -0.755857 0.000000 -0.654736
vn -0.994270 -0.000000 -0.106893
vn -0.754909 0.250726 -0.606011
vn -0.994253 0.040854 -0.098954
vn -0.752083 0.465655 -0.466408
vn -0.994192 0.075941 -0.076258
vn -0.747735 0.613180 -0.254761
vn -0.994081 0.100262 -0.041850
vn -0.960071 -0.258461 -0.107058
vn -0.090832 -0.920061 -0.381101
vn -0.090832 -0.995866 0.000000
vn -0.960071 -0.279756 0.000000
vn -0.960070 -0.197820 -0.197820
vn -0.090832 -0.704184 -0.704184
vn -0.960069 -0.107060 -0.258466
vn -0.090832 -0.381102 -0.920060
vn -0.960069 -0.000000 -0.279763
vn -0.090832 -0.000001 -0.995866
vn -0.960069 0.107060 -0.258466
vn -0.090832 0.381101 -0.920061
vn -0.960070 0.197819 -0.197820
vn -0.090832 0.704184 -0.704184
vn -0.960071 0.258461 -0.107058
vn -0.090832 0.920060 -0.381102
vn -0.960071 0.279756 -0.000000
vn -0.090832 0.995866 -0.000000
vn -0.960071 0.258461 0.107058
vn -0.090832 0.920061 0.381101
vn -0.960070 0.197820 0.197819
vn -0.090832 0.704184 0.704183
vn -0.960069 0.107060 0.258466
vn -0.090832 0.381102 0.920060
vn -0.960069 0.000000 0.279763
vn -0.090832 0.000000 0.995866
vn -0.960069 -0.107060 0.258466
vn -0.090832 -0.381101 0.920061
vn -0.960070 -0.197820 0.197820
vn -0.090832 -0.704184 0.704184
vn -0.960071 -0.258461 0.107058
vn -0.090832 -0.920060 0.381102
vn 0.090832 -0.920061 -0.381101
vn 0.960071 -0.258461 -0.107058
vn 0.960071 -0.279756 0.000000
vn 0.090832 -0.995866 0.000000
vn 0.090832 -0.704184 -0.704184
vn 0.960070 -0.197820 -0.197819
vn 0.090832 -0.381102 -0.920060
vn 0.960069 -0.107060 -0.258466
vn 0.090832 -0.000001 -0.995866
vn 0.960069 -0.000000 -0.279763
vn 0.090832 0.381101 -0.920061
vn 0.960069 0.107060 -0.258466
vn 0.090832 0.704184 -0.704184
vn 0.960070 0.197819 -0.197820
vn 0.090832 0.920060 -0.381102
vn 0.960071 0.258461 -0.107058
vn 0.090832 0.995866 -0.000000
vn 0.960071 0.279756 -0.000000
vn 0.090832 0.920061 0.381101
vn 0.960071 0.258461 0.107058
vn 0.090832 0.704184 0.704184
vn 0.960070 0.197820 0.197819
vn 0.090832 0.381102 0.920060
vn 0.960069 0.107060 0.258466
vn 0.090832 -0.000000 0.995866
vn 0.960069 -0.000000 0.279763
vn 0.090832 -0.381101 0.920061
vn 0.960069 -0.107060 0.258466
vn 0.090832 -0.704184 0.704184
vn 0.960070 -0.197820 0.197820
vn 0.090832 -0.920060 0.381102
vn 0.960071 -0.258461 0.107058
vn 0.993806 0.102785 0.042245
vn 0.738792 0.622901 0.257257
vn 0.744210 0.667945 -0.000765
vn 0.993967 0.109679 -0.000325
vn 0.993657 0.079685 0.079350
vn 0.734081 0.480554 0.479785
vn 0.993542 0.043539 0.104784
vn 0.730847 0.261482 0.630468
vn 0.993496 0.000000 0.113866
vn 0.729665 0.000000 0.683804
vn 0.993542 -0.043539 0.104784
vn 0.730847 -0.261482 0.630468
vn 0.993657 -0.079685 0.079349
vn 0.734081 -0.480554 0.479785
vn 0.993806 -0.102785 0.042245
vn 0.738792 -0.622901 0.257258
vn 0.993967 -0.109679 -0.000325
vn 0.744210 -0.667945 -0.000764
vn 0.994112 -0.099996 -0.041739
vn 0.749455 -0.611387 -0.254013
vn 0.994223 -0.075736 -0.076052
vn 0.753789 -0.464277 -0.465026
vn 0.994285 -0.040742 -0.098684
vn 0.756606 -0.249978 -0.604201
vn 0.994302 -0.000000 -0.106601
vn 0.757551 0.000000 -0.652777
vn 0.994285 0.040742 -0.098684
vn 0.756606 0.249978 -0.604201
vn 0.994223 0.075735 -0.076052
vn 0.753789 0.464277 -0.465025
vn 0.994112 0.099995 -0.041739
vn 0.749455 0.611387 -0.254014
s 1
g pCylinder1
usemtl initialShadingGroup
f 2/1/1 1/2/2 3/3/3
f 4/4/4 2/1/1 3/3/3
f 5/5/5 4/4/4 3/3/3
f 6/6/6 5/5/5 3/3/3
f 7/7/7 6/6/6 3/3/3
f 8/8/8 7/7/7 3/3/3
f 9/9/9 8/8/8 3/3/3
f 10/10/10 9/9/9 3/3/3
f 11/11/11 10/10/10 3/3/3
f 12/12/12 11/11/11 3/3/3
f 13/13/13 12/12/12 3/3/3
f 14/14/14 13/13/13 3/3/3
f 15/15/15 14/14/14 3/3/3
f 16/16/16 15/15/15 3/3/3
f 17/17/17 16/16/16 3/3/3
f 1/2/2 17/17/17 3/3/3
f 18/18/18 19/19/19 20/20/20
f 19/19/19 21/21/21 20/20/20
f 21/21/21 22/22/22 20/20/20
f 22/22/22 23/23/23 20/20/20
f 23/23/23 24/24/24 20/20/20
f 24/24/24 25/25/25 20/20/20
f 25/25/25 26/26/26 20/20/20
f 26/26/26 27/27/27 20/20/20
f 27/27/27 28/28/28 20/20/20
f 28/28/28 29/29/29 20/20/20
f 29/29/29 30/30/30 20/20/20
f 30/30/30 31/31/31 20/20/20
f 31/31/31 32/32/32 20/20/20
f 32/32/32 33/33/33 20/20/20
f 33/33/33 34/34/34 20/20/20
f 34/34/34 18/18/18 20/20/20
f 35/35/35 36/36/36 38/37/37 37/38/38
f 36/36/36 35/35/35 65/39/39 66/40/40
f 37/38/38 38/37/37 40/41/41 39/42/42
f 39/42/42 40/41/41 42/43/43 41/44/44
f 41/44/44 42/43/43 44/45/45 43/46/46
f 43/46/46 44/45/45 46/47/47 45/48/48
f 45/48/48 46/47/47 48/49/49 47/50/50
f 47/50/50 48/49/49 50/51/51 49/52/52
f 49/52/52 50/51/51 52/53/53 51/54/54
f 51/54/54 52/53/53 54/55/55 53/56/56
f 53/56/56 54/55/55 56/57/57 55/58/58
f 55/58/58 56/57/57 58/59/59 57/60/60
f 57/60/60 58/59/59 60/61/61 59/62/62
f 59/62/62 60/61/61 62/63/63 61/64/64
f 61/64/64 62/63/63 64/65/65 63/66/66
f 63/66/66 64/65/65 66/40/40 65/39/39
f 67/67/67 68/176/68 98/161/69 97/69/70
f 68/176/68 67/67/67 69/70/71 70/175/72
f 70/175/72 69/70/71 71/71/73 72/174/74
f 72/174/74 71/71/73 73/72/75 74/173/76
f 74/173/76 73/72/75 75/73/77 76/172/78
f 76/172/78 75/73/77 77/75/79 78/171/80
f 78/171/80 77/75/79 79/76/81 80/170/82
f 80/170/82 79/76/81 81/77/83 82/169/84
f 82/169/84 81/77/83 83/78/85 84/168/86
f 84/168/86 83/78/85 85/79/87 86/167/88
f 86/167/88 85/79/87 87/80/89 88/166/90
f 88/166/90 87/80/89 89/82/91 90/165/92
f 90/165/92 89/82/91 91/83/93 92/164/94
f 92/164/94 91/83/93 93/84/95 94/163/96
f 94/163/96 93/84/95 95/85/97 96/162/98
f 96/162/98 95/85/97 97/69/70 98/161/69
f 99/160/99 100/87/100 130/88/101 129/146/102
f 100/87/100 99/160/99 101/159/103 102/90/104
f 102/90/104 101/159/103 103/158/105 104/92/106
f 104/92/106 103/158/105 105/157/107 106/93/108
f 106/93/108 105/157/107 107/156/109 108/95/110
f 108/95/110 107/156/109 109/155/111 110/96/112
f 110/96/112 109/155/111 111/154/113 112/98/114
f 112/98/114 111/154/113 113/153/115 114/100/116
f 114/100/116 113/153/115 115/152/117 116/102/118
f 116/102/118 115/152/117 117/151/119 118/104/120
f 118/104/120 117/151/119 119/150/121 120/106/122
f 120/106/122 119/150/121 121/149/123 122/108/124
f 122/108/124 121/149/123 123/148/125 124/109/126
f 124/109/126 123/148/125 125/147/127 126/111/128
f 126/111/128 125/147/127 127/145/129 128/112/130
f 128/112/130 127/145/129 129/146/102 130/88/101
f 131/113/131 132/114/132 162/115/133 161/116/134
f 132/114/132 131/113/131 133/117/135 134/118/136
f 134/118/136 133/117/135 135/119/137 136/120/138
f 136/120/138 135/119/137 137/121/139 138/122/140
f 138/122/140 137/121/139 139/123/141 140/124/142
f 140/124/142 139/123/141 141/125/143 142/126/144
f 142/126/144 141/125/143 143/127/145 144/128/146
f 144/128/146 143/127/145 145/129/147 146/130/148
f 146/130/148 145/129/147 147/131/149 148/132/150
f 148/132/150 147/131/149 149/133/151 150/134/152
f 150/134/152 149/133/151 151/135/153 152/136/154
f 152/136/154 151/135/153 153/137/155 154/138/156
f 154/138/156 153/137/155 155/139/157 156/140/158
f 156/140/158 155/139/157 157/141/159 158/142/160
f 158/142/160 157/141/159 159/143/161 160/144/162
f 160/144/162 159/143/161 161/116/134 162/115/133
f 35/35/35 37/38/38 69/70/71 67/67/67
f 37/38/38 39/42/42 71/71/73 69/70/71
f 39/42/42 41/44/44 73/72/75 71/71/73
f 41/44/44 43/46/46 75/73/77 73/72/75
f 43/46/46 45/48/48 77/75/79 75/73/77
f 45/48/48 47/50/50 79/76/81 77/75/79
f 47/50/50 49/52/52 81/77/83 79/76/81
f 49/52/52 51/54/54 83/78/85 81/77/83
f 51/54/54 53/56/56 85/79/87 83/78/85
f 53/56/56 55/58/58 87/80/89 85/79/87
f 55/58/58 57/60/60 89/82/91 87/80/89
f 57/60/60 59/62/62 91/83/93 89/82/91
f 59/62/62 61/64/64 93/84/95 91/83/93
f 61/64/64 63/66/66 95/85/97 93/84/95
f 63/66/66 65/39/39 97/69/70 95/85/97
f 65/39/39 35/35/35 67/67/67 97/69/70
f 68/68/68 70/74/72 101/81/103 99/86/99
f 70/74/72 72/89/74 103/91/105 101/81/103
f 72/89/74 74/94/76 105/97/107 103/91/105
f 74/94/76 76/99/78 107/101/109 105/97/107
f 76/99/78 78/103/80 109/105/111 107/101/109
f 78/103/80 80/107/82 111/196/113 109/105/111
f 80/107/82 82/110/84 113/177/115 111/196/113
f 82/110/84 84/178/86 115/179/117 113/177/115
f 84/178/86 86/180/88 117/181/119 115/179/117
f 86/180/88 88/182/90 119/183/121 117/181/119
f 88/182/90 90/184/92 121/185/123 119/183/121
f 90/184/92 92/186/94 123/187/125 121/185/123
f 92/186/94 94/188/96 125/189/127 123/187/125
f 94/188/96 96/190/98 127/191/129 125/189/127
f 96/190/98 98/195/69 129/193/102 127/191/129
f 98/192/69 68/68/68 99/86/99 129/194/102
f 100/87/100 102/90/104 133/117/135 131/113/131
f 102/90/104 104/92/106 135/119/137 133/117/135
f 104/92/106 106/93/108 137/121/139 135/119/137
f 106/93/108 108/95/110 139/123/141 137/121/139
f 108/95/110 110/96/112 141/125/143 139/123/141
f 110/96/112 112/98/114 143/127/145 141/125/143
f 112/98/114 114/100/116 145/129/147 143/127/145
f 114/100/116 116/102/118 147/131/149 145/129/147
f 116/102/118 118/104/120 149/133/151 147/131/149
f 118/104/120 120/106/122 151/135/153 149/133/151
f 120/106/122 122/108/124 153/137/155 151/135/153
f 122/108/124 124/109/126 155/139/157 153/137/155
f 124/109/126 126/111/128 157/141/159 155/139/157
f 126/111/128 128/112/130 159/143/161 157/141/159
f 128/112/130 130/88/101 161/116/134 159/143/161
f 130/88/101 100/87/100 131/113/131 161/116/134
f 38/37/37 36/36/36 1/2/2 2/1/1
f 40/41/41 38/37/37 2/1/1 4/4/4
f 42/43/43 40/41/41 4/4/4 5/5/5
f 44/45/45 42/43/43 5/5/5 6/6/6
f 46/47/47 44/45/45 6/6/6 7/7/7
f 48/49/49 46/47/47 7/7/7 8/8/8
f 50/51/51 48/49/49 8/8/8 9/9/9
f 52/53/53 50/51/51 9/9/9 10/10/10
f 54/55/55 52/53/53 10/10/10 11/11/11
f 56/57/57 54/55/55 11/11/11 12/12/12
f 58/59/59 56/57/57 12/12/12 13/13/13
f 60/61/61 58/59/59 13/13/13 14/14/14
f 62/63/63 60/61/61 14/14/14 15/15/15
f 64/65/65 62/63/63 15/15/15 16/16/16
f 66/40/40 64/65/65 16/16/16 17/17/17
f 36/36/36 66/40/40 17/17/17 1/2/2
f 132/114/132 134/118/136 19/19/19 18/18/18
f 134/118/136 136/120/138 21/21/21 19/19/19
f 136/120/138 138/122/140 22/22/22 21/21/21
f 138/122/140 140/124/142 23/23/23 22/22/22
f 140/124/142 142/126/144 24/24/24 23/23/23
f 142/126/144 144/128/146 25/25/25 24/24/24
f 144/128/146 146/130/148 26/26/26 25/25/25
f 146/130/148 148/132/150 27/27/27 26/26/26
f 148/132/150 150/134/152 28/28/28 27/27/27
f 150/134/152 152/136/154 29/29/29 28/28/28
f 152/136/154 154/138/156 30/30/30 29/29/29
f 154/138/156 156/140/158 31/31/31 30/30/30
f 156/140/158 158/142/160 32/32/32 31/31/31
f 158/142/160 160/144/162 33/33/33 32/32/32
f 160/144/162 162/115/133 34/34/34 33/33/33
f 162/115/133 132/114/132 18/18/18 34/34/34
