# This file uses meters as units for non-parametric coordinates.

g default
v -41.636677 10.563869 16.728321
v -50.000000 10.563869 8.364998
v -41.636677 2.200546 8.364998
v -41.636677 65.059113 16.728321
v -41.636677 73.422440 8.364998
v -50.000000 65.059113 8.364998
v 0.000001 65.059113 16.728321
v 0.000001 10.563869 16.728321
v 0.000001 2.200546 8.364997
v 0.000001 73.422440 8.364997
v -42.850159 75.622986 0.000000
v 0.000001 75.622986 -0.000000
v 0.000001 -0.000000 0.000000
v -42.850155 -0.000000 -0.000000
v -51.457222 8.880127 -0.000000
v -51.457222 66.742859 -0.000000
v -10.115741 72.874168 0.000000
v -10.115741 78.966415 0.000000
v -6.251871 84.284569 -0.000000
v 0.000001 86.315910 -0.000000
v -19.040142 72.874168 3.072243
v -19.040142 80.940521 3.072243
v -11.767453 90.950508 3.072242
v 0.000001 94.773987 3.072242
v -13.697309 72.874168 4.970991
v -13.697308 79.571152 5.940502
v -8.465402 86.772255 5.940502
v 0.000001 89.522835 5.940502
v -19.040142 72.874168 -0.000000
v -19.040140 80.940521 -0.000000
v -11.767454 90.950508 -0.000000
v 0.000001 94.773987 -0.000000
v -50.000000 10.563869 -8.364998
v -41.636677 10.563869 -16.728321
v -41.636677 65.059113 -16.728321
v -50.000000 65.059113 -8.364998
v -41.636677 2.200546 -8.364998
v -41.636677 73.422440 -8.364998
v 0.000001 10.563869 -16.728321
v 0.000001 65.059113 -16.728321
v 0.000001 2.200546 -8.364997
v 0.000001 73.422440 -8.364997
v -19.040142 80.940521 -3.072243
v -19.040142 72.874168 -3.072243
v -13.697309 72.874168 -4.970991
v -13.697308 79.571152 -5.940502
v -11.767453 90.950508 -3.072242
v -8.465402 86.772255 -5.940502
v 0.000001 94.773987 -3.072242
v 0.000001 89.522835 -5.940502
v 50.000004 10.563869 8.364998
v 41.636681 10.563869 16.728321
v 41.636681 65.059113 16.728321
v 50.000004 65.059113 8.364998
v 41.636681 2.200546 8.364998
v 41.636681 73.422440 8.364998
v 42.850163 75.622986 0.000000
v 42.850159 -0.000000 0.000000
v 51.457226 8.880127 0.000000
v 51.457226 66.742859 0.000000
v 19.040146 80.940521 3.072243
v 19.040146 72.874168 3.072243
v 13.697311 72.874168 4.970991
v 13.697310 79.571152 5.940502
v 11.767456 90.950508 3.072242
v 8.465405 86.772255 5.940502
v 10.115744 72.874168 -0.000000
v 10.115744 78.966415 -0.000000
v 6.251873 84.284569 -0.000000
v 19.040142 80.940521 -0.000000
v 19.040146 72.874168 -0.000000
v 11.767457 90.950508 -0.000000
v 50.000004 10.563869 -8.364998
v 50.000004 65.059113 -8.364998
v 41.636681 65.059113 -16.728321
v 41.636681 10.563869 -16.728321
v 41.636681 2.200546 -8.364998
v 41.636681 73.422440 -8.364998
v 19.040146 80.940521 -3.072243
v 13.697310 79.571152 -5.940502
v 13.697311 72.874168 -4.970991
v 19.040146 72.874168 -3.072243
v 11.767456 90.950508 -3.072242
v 8.465405 86.772255 -5.940502
vt 0.254475 0.183554
vt 0.431035 0.183554
vt 0.431035 0.788024
vt 0.238382 0.788024
vt 0.367169 0.093942
vt 0.354030 0.906319
vt 0.987692 0.183554
vt 0.987692 0.788024
vt 0.987692 0.085950
vt 0.987692 0.913999
vt 0.275957 0.982158
vt 0.987692 0.984207
vt 0.288751 0.016016
vt 0.987692 0.002186
vt 0.135993 0.156033
vt 0.134468 0.842412
vt 0.029557 0.082362
vt 0.029557 0.013979
vt 0.069290 0.013979
vt 0.069290 0.082362
vt 0.029557 0.166809
vt 0.069290 0.166809
vt 0.029557 0.255287
vt 0.069290 0.255287
vt 0.115031 0.013979
vt 0.115031 0.082362
vt 0.115031 0.166809
vt 0.115031 0.255287
vt 0.008045 0.082362
vt 0.008045 0.013979
vt 0.008045 0.166809
vt 0.008045 0.255287
vt 0.254475 0.183554
vt 0.431035 0.183554
vt 0.431035 0.788024
vt 0.238382 0.788024
vt 0.367169 0.093942
vt 0.354030 0.906319
vt 0.987692 0.183554
vt 0.987692 0.788024
vt 0.987692 0.085950
vt 0.987692 0.913999
vt 0.275957 0.982158
vt 0.987692 0.984207
vt 0.288751 0.016016
vt 0.987692 0.002186
vt 0.135993 0.156033
vt 0.134468 0.842412
vt 0.029557 0.082362
vt 0.029557 0.013979
vt 0.069290 0.013979
vt 0.069290 0.082362
vt 0.029557 0.166809
vt 0.069290 0.166809
vt 0.029557 0.255287
vt 0.069290 0.255287
vt 0.115031 0.013979
vt 0.115031 0.082362
vt 0.115031 0.166809
vt 0.115031 0.255287
vt 0.008045 0.082362
vt 0.008045 0.013979
vt 0.008045 0.166809
vt 0.008045 0.255287
vt 0.254475 0.183554
vt 0.431035 0.183554
vt 0.431035 0.788024
vt 0.238382 0.788024
vt 0.367169 0.093942
vt 0.354030 0.906319
vt 0.987692 0.183554
vt 0.987692 0.788024
vt 0.987692 0.085950
vt 0.987692 0.913999
vt 0.275957 0.982158
vt 0.987692 0.984207
vt 0.288751 0.016016
vt 0.987692 0.002186
vt 0.135993 0.156033
vt 0.134468 0.842412
vt 0.029557 0.082362
vt 0.029557 0.013979
vt 0.069290 0.013979
vt 0.069290 0.082362
vt 0.029557 0.166809
vt 0.069290 0.166809
vt 0.029557 0.255287
vt 0.069290 0.255287
vt 0.115031 0.013979
vt 0.115031 0.082362
vt 0.115031 0.166809
vt 0.115031 0.255287
vt 0.008045 0.082362
vt 0.008045 0.013979
vt 0.008045 0.166809
vt 0.008045 0.255287
vt 0.254475 0.183554
vt 0.238382 0.788024
vt 0.431035 0.788024
vt 0.431035 0.183554
vt 0.367169 0.093942
vt 0.354030 0.906319
vt 0.987692 0.788024
vt 0.987692 0.183554
vt 0.987692 0.085950
vt 0.987692 0.913999
vt 0.275957 0.982158
vt 0.987692 0.984207
vt 0.288751 0.016016
vt 0.987692 0.002186
vt 0.135993 0.156033
vt 0.134468 0.842412
vt 0.029557 0.082362
vt 0.069290 0.082362
vt 0.069290 0.013979
vt 0.029557 0.013979
vt 0.029557 0.166809
vt 0.069290 0.166809
vt 0.029557 0.255287
vt 0.069290 0.255287
vt 0.115031 0.082362
vt 0.115031 0.013979
vt 0.115031 0.166809
vt 0.115031 0.255287
vt 0.008045 0.082362
vt 0.008045 0.013979
vt 0.008045 0.166809
vt 0.008045 0.255287
vn -0.707107 -0.000000 0.707107
vn -0.707107 -0.000000 0.707107
vn -0.707107 -0.000000 0.707107
vn -0.707107 -0.000000 0.707107
vn -0.577350 -0.577350 0.577350
vn -0.577350 -0.577350 0.577350
vn -0.577350 -0.577350 0.577350
vn -0.577350 0.577350 0.577350
vn -0.577350 0.577350 0.577350
vn -0.577350 0.577350 0.577350
vn 0.000000 0.000000 1.000000
vn 0.000000 0.000000 1.000000
vn 0.000000 0.000000 1.000000
vn 0.000000 0.000000 1.000000
vn 0.000000 -0.707107 0.707107
vn 0.000000 -0.707107 0.707107
vn 0.000000 -0.707107 0.707107
vn 0.000000 -0.707107 0.707107
vn -0.000000 0.707107 0.707107
vn -0.000000 0.707107 0.707107
vn -0.000000 0.707107 0.707107
vn -0.000000 0.707107 0.707107
vn -0.000000 0.967096 0.254410
vn -0.000000 0.967096 0.254410
vn -0.000000 0.967096 0.254410
vn -0.000000 0.967096 0.254410
vn 0.000000 -0.967096 0.254410
vn 0.000000 -0.967096 0.254410
vn 0.000000 -0.967096 0.254410
vn 0.000000 -0.967096 0.254410
vn -0.686928 -0.676050 0.266620
vn -0.686928 -0.676050 0.266620
vn -0.686928 -0.676050 0.266620
vn -0.686928 -0.676050 0.266620
vn -0.985163 -0.000000 0.171620
vn -0.985163 -0.000000 0.171620
vn -0.985163 -0.000000 0.171620
vn -0.985163 -0.000000 0.171620
vn -0.686928 0.676050 0.266621
vn -0.686928 0.676050 0.266621
vn -0.686928 0.676050 0.266621
vn -0.686928 0.676050 0.266621
vn -0.413052 -0.059678 0.908750
vn -0.413052 -0.059678 0.908750
vn -0.413052 -0.059678 0.908750
vn -0.413052 -0.059678 0.908750
vn -0.394969 0.286962 0.872727
vn -0.394969 0.286962 0.872727
vn -0.394969 0.286962 0.872727
vn -0.394969 0.286962 0.872727
vn -0.153900 0.473656 0.867159
vn -0.153900 0.473656 0.867159
vn -0.153900 0.473656 0.867159
vn -0.153900 0.473656 0.867159
vn 0.834173 -0.041688 0.549925
vn 0.834173 -0.041688 0.549925
vn 0.834173 -0.041688 0.549925
vn 0.834173 -0.041688 0.549925
vn 0.709592 -0.515549 0.480300
vn 0.709592 -0.515549 0.480300
vn 0.709592 -0.515549 0.480300
vn 0.709592 -0.515549 0.480300
vn 0.274901 -0.846062 0.456737
vn 0.274901 -0.846062 0.456737
vn 0.274901 -0.846062 0.456737
vn 0.274902 -0.846062 0.456737
vn -1.000000 0.000000 0.000000
vn -1.000000 0.000000 0.000000
vn -1.000000 0.000000 0.000000
vn -1.000000 0.000000 0.000000
vn -0.809017 0.587786 0.000000
vn -0.809017 0.587786 0.000000
vn -0.809017 0.587786 0.000000
vn -0.809017 0.587786 0.000000
vn -0.309017 0.951057 0.000000
vn -0.309017 0.951057 0.000000
vn -0.309017 0.951057 0.000000
vn -0.309017 0.951057 0.000000
vn -0.707107 -0.000000 -0.707107
vn -0.707107 -0.000000 -0.707107
vn -0.707107 -0.000000 -0.707107
vn -0.707107 -0.000000 -0.707107
vn -0.577350 -0.577350 -0.577350
vn -0.577350 -0.577350 -0.577350
vn -0.577350 -0.577350 -0.577350
vn -0.577350 0.577350 -0.577350
vn -0.577350 0.577350 -0.577350
vn -0.577350 0.577350 -0.577350
vn 0.000000 0.000000 -1.000000
vn 0.000000 0.000000 -1.000000
vn 0.000000 0.000000 -1.000000
vn 0.000000 0.000000 -1.000000
vn 0.000000 -0.707107 -0.707107
vn 0.000000 -0.707107 -0.707107
vn 0.000000 -0.707107 -0.707107
vn 0.000000 -0.707107 -0.707107
vn -0.000000 0.707107 -0.707107
vn -0.000000 0.707107 -0.707107
vn -0.000000 0.707107 -0.707107
vn -0.000000 0.707107 -0.707107
vn -0.000000 0.967096 -0.254410
vn -0.000000 0.967097 -0.254410
vn -0.000000 0.967097 -0.254410
vn -0.000000 0.967096 -0.254410
vn 0.000000 -0.967096 -0.254410
vn 0.000000 -0.967096 -0.254410
vn 0.000000 -0.967097 -0.254410
vn 0.000000 -0.967097 -0.254410
vn -0.686928 -0.676050 -0.266620
vn -0.686928 -0.676050 -0.266620
vn -0.686928 -0.676050 -0.266620
vn -0.686928 -0.676050 -0.266620
vn -0.985163 -0.000000 -0.171620
vn -0.985163 -0.000000 -0.171620
vn -0.985163 -0.000000 -0.171620
vn -0.985163 -0.000000 -0.171620
vn -0.686928 0.676050 -0.266621
vn -0.686928 0.676050 -0.266621
vn -0.686928 0.676050 -0.266621
vn -0.686928 0.676050 -0.266621
vn -0.413052 -0.059678 -0.908750
vn -0.413052 -0.059678 -0.908750
vn -0.413052 -0.059678 -0.908750
vn -0.413052 -0.059678 -0.908750
vn -0.394969 0.286962 -0.872727
vn -0.394969 0.286962 -0.872727
vn -0.394969 0.286962 -0.872727
vn -0.394969 0.286962 -0.872727
vn -0.153900 0.473656 -0.867159
vn -0.153900 0.473656 -0.867159
vn -0.153900 0.473656 -0.867159
vn -0.153900 0.473656 -0.867159
vn 0.834173 -0.041688 -0.549925
vn 0.834173 -0.041688 -0.549925
vn 0.834173 -0.041688 -0.549925
vn 0.834173 -0.041688 -0.549925
vn 0.709592 -0.515549 -0.480300
vn 0.709592 -0.515549 -0.480300
vn 0.709592 -0.515549 -0.480300
vn 0.709592 -0.515549 -0.480300
vn 0.274901 -0.846062 -0.456737
vn 0.274902 -0.846062 -0.456737
vn 0.274901 -0.846062 -0.456737
vn 0.274901 -0.846062 -0.456737
vn -1.000000 0.000000 -0.000000
vn -1.000000 0.000000 -0.000000
vn -1.000000 0.000000 -0.000000
vn -1.000000 0.000000 -0.000000
vn -0.809017 0.587786 -0.000000
vn -0.809017 0.587786 -0.000000
vn -0.809017 0.587786 -0.000000
vn -0.809017 0.587786 -0.000000
vn -0.309017 0.951057 -0.000000
vn -0.309017 0.951057 -0.000000
vn -0.309017 0.951057 -0.000000
vn -0.309017 0.951056 -0.000000
vn 0.707107 -0.000000 0.707107
vn 0.707107 -0.000000 0.707107
vn 0.707107 -0.000000 0.707107
vn 0.707107 -0.000000 0.707107
vn 0.577350 -0.577350 0.577350
vn 0.577350 -0.577350 0.577350
vn 0.577350 -0.577350 0.577350
vn 0.577350 0.577350 0.577350
vn 0.577350 0.577350 0.577350
vn 0.577350 0.577350 0.577350
vn -0.000000 0.000000 1.000000
vn -0.000000 0.000000 1.000000
vn -0.000000 0.000000 1.000000
vn -0.000000 0.000000 1.000000
vn -0.000000 -0.707107 0.707107
vn -0.000000 -0.707107 0.707107
vn -0.000000 -0.707107 0.707107
vn -0.000000 -0.707107 0.707107
vn 0.000000 0.707107 0.707107
vn 0.000000 0.707107 0.707107
vn 0.000000 0.707107 0.707107
vn 0.000000 0.707107 0.707107
vn 0.000000 0.967096 0.254410
vn 0.000000 0.967097 0.254410
vn 0.000000 0.967097 0.254410
vn 0.000000 0.967096 0.254410
vn -0.000000 -0.967096 0.254410
vn -0.000000 -0.967096 0.254410
vn -0.000000 -0.967097 0.254410
vn -0.000000 -0.967097 0.254410
vn 0.686928 -0.676050 0.266620
vn 0.686928 -0.676050 0.266620
vn 0.686928 -0.676050 0.266620
vn 0.686928 -0.676050 0.266620
vn 0.985163 -0.000000 0.171620
vn 0.985163 -0.000000 0.171620
vn 0.985163 -0.000000 0.171620
vn 0.985163 -0.000000 0.171620
vn 0.686928 0.676050 0.266621
vn 0.686928 0.676050 0.266621
vn 0.686928 0.676050 0.266621
vn 0.686928 0.676050 0.266621
vn 0.413052 -0.059678 0.908750
vn 0.413052 -0.059678 0.908750
vn 0.413052 -0.059678 0.908750
vn 0.413052 -0.059678 0.908750
vn 0.394969 0.286962 0.872727
vn 0.394969 0.286962 0.872727
vn 0.394969 0.286962 0.872727
vn 0.394969 0.286962 0.872727
vn 0.153900 0.473656 0.867159
vn 0.153900 0.473656 0.867159
vn 0.153900 0.473656 0.867159
vn 0.153900 0.473656 0.867159
vn -0.834173 -0.041688 0.549925
vn -0.834173 -0.041688 0.549925
vn -0.834173 -0.041688 0.549925
vn -0.834173 -0.041688 0.549925
vn -0.709592 -0.515549 0.480300
vn -0.709592 -0.515549 0.480300
vn -0.709592 -0.515549 0.480300
vn -0.709592 -0.515549 0.480300
vn -0.274901 -0.846062 0.456737
vn -0.274902 -0.846062 0.456737
vn -0.274901 -0.846062 0.456737
vn -0.274901 -0.846062 0.456737
vn 1.000000 0.000000 0.000000
vn 1.000000 0.000000 0.000000
vn 1.000000 0.000000 0.000000
vn 1.000000 0.000000 0.000000
vn 0.809017 0.587786 0.000000
vn 0.809017 0.587786 0.000000
vn 0.809017 0.587786 0.000000
vn 0.809017 0.587786 0.000000
vn 0.309017 0.951057 0.000000
vn 0.309017 0.951057 0.000000
vn 0.309017 0.951057 0.000000
vn 0.309017 0.951056 0.000000
vn 0.707107 -0.000000 -0.707107
vn 0.707107 -0.000000 -0.707107
vn 0.707107 -0.000000 -0.707107
vn 0.707107 -0.000000 -0.707107
vn 0.577350 -0.577350 -0.577350
vn 0.577350 -0.577350 -0.577350
vn 0.577350 -0.577350 -0.577350
vn 0.577350 0.577350 -0.577350
vn 0.577350 0.577350 -0.577350
vn 0.577350 0.577350 -0.577350
vn -0.000000 0.000000 -1.000000
vn -0.000000 0.000000 -1.000000
vn -0.000000 0.000000 -1.000000
vn -0.000000 0.000000 -1.000000
vn -0.000000 -0.707107 -0.707107
vn -0.000000 -0.707107 -0.707107
vn -0.000000 -0.707107 -0.707107
vn -0.000000 -0.707107 -0.707107
vn 0.000000 0.707107 -0.707107
vn 0.000000 0.707107 -0.707107
vn 0.000000 0.707107 -0.707107
vn 0.000000 0.707107 -0.707107
vn 0.000000 0.967096 -0.254410
vn 0.000000 0.967096 -0.254410
vn 0.000000 0.967096 -0.254410
vn 0.000000 0.967096 -0.254410
vn -0.000000 -0.967096 -0.254410
vn -0.000000 -0.967096 -0.254410
vn -0.000000 -0.967096 -0.254410
vn -0.000000 -0.967096 -0.254410
vn 0.686928 -0.676050 -0.266620
vn 0.686928 -0.676050 -0.266620
vn 0.686928 -0.676050 -0.266620
vn 0.686928 -0.676050 -0.266620
vn 0.985163 -0.000000 -0.171620
vn 0.985163 -0.000000 -0.171620
vn 0.985163 -0.000000 -0.171620
vn 0.985163 -0.000000 -0.171620
vn 0.686928 0.676050 -0.266621
vn 0.686928 0.676050 -0.266621
vn 0.686928 0.676050 -0.266621
vn 0.686928 0.676050 -0.266621
vn 0.413052 -0.059678 -0.908750
vn 0.413052 -0.059678 -0.908750
vn 0.413052 -0.059678 -0.908750
vn 0.413052 -0.059678 -0.908750
vn 0.394969 0.286962 -0.872727
vn 0.394969 0.286962 -0.872727
vn 0.394969 0.286962 -0.872727
vn 0.394969 0.286962 -0.872727
vn 0.153900 0.473656 -0.867159
vn 0.153900 0.473656 -0.867159
vn 0.153900 0.473656 -0.867159
vn 0.153900 0.473656 -0.867159
vn -0.834173 -0.041688 -0.549925
vn -0.834173 -0.041688 -0.549925
vn -0.834173 -0.041688 -0.549925
vn -0.834173 -0.041688 -0.549925
vn -0.709592 -0.515549 -0.480300
vn -0.709592 -0.515549 -0.480300
vn -0.709592 -0.515549 -0.480300
vn -0.709592 -0.515549 -0.480300
vn -0.274901 -0.846062 -0.456737
vn -0.274901 -0.846062 -0.456737
vn -0.274901 -0.846062 -0.456737
vn -0.274902 -0.846062 -0.456737
vn 1.000000 0.000000 -0.000000
vn 1.000000 0.000000 -0.000000
vn 1.000000 0.000000 -0.000000
vn 1.000000 0.000000 -0.000000
vn 0.809017 0.587786 -0.000000
vn 0.809017 0.587786 -0.000000
vn 0.809017 0.587786 -0.000000
vn 0.809017 0.587786 -0.000000
vn 0.309017 0.951057 -0.000000
vn 0.309017 0.951057 -0.000000
vn 0.309017 0.951057 -0.000000
vn 0.309017 0.951057 -0.000000
s off
g MedKit
f 2/1/1 1/2/2 4/3/3 6/4/4
f 1/2/5 2/1/6 3/5/7
f 4/3/8 5/6/9 6/4/10
f 4/3/11 1/2/12 8/7/13 7/8/14
f 9/9/15 8/7/16 1/2/17 3/5/18
f 7/8/19 10/10/20 5/6/21 4/3/22
f 11/11/23 5/6/24 10/10/25 12/12/26
f 14/13/27 13/14/28 9/9/29 3/5/30
f 15/15/31 14/13/32 3/5/33 2/1/34
f 2/1/35 6/4/36 16/16/37 15/15/38
f 11/11/39 16/16/40 6/4/41 5/6/42
f 22/17/43 21/18/44 25/19/45 26/20/46
f 23/21/47 22/17/48 26/20/49 27/22/50
f 24/23/51 23/21/52 27/22/53 28/24/54
f 26/20/55 25/19/56 17/25/57 18/26/58
f 27/22/59 26/20/60 18/26/61 19/27/62
f 28/24/63 27/22/64 19/27/65 20/28/66
f 30/29/67 29/30/68 21/18/69 22/17/70
f 31/31/71 30/29/72 22/17/73 23/21/74
f 32/32/75 31/31/76 23/21/77 24/23/78
f 33/33/79 36/36/80 35/35/81 34/34/82
f 34/34/83 37/37/84 33/33/85
f 35/35/86 36/36/87 38/38/88
f 35/35/89 40/40/90 39/39/91 34/34/92
f 41/41/93 37/37/94 34/34/95 39/39/96
f 40/40/97 35/35/98 38/38/99 42/42/100
f 11/43/101 12/44/102 42/42/103 38/38/104
f 14/45/105 37/37/106 41/41/107 13/46/108
f 15/47/109 33/33/110 37/37/111 14/45/112
f 33/33/113 15/47/114 16/48/115 36/36/116
f 11/43/117 38/38/118 36/36/119 16/48/120
f 43/49/121 46/52/122 45/51/123 44/50/124
f 47/53/125 48/54/126 46/52/127 43/49/128
f 49/55/129 50/56/130 48/54/131 47/53/132
f 46/52/133 18/58/134 17/57/135 45/51/136
f 48/54/137 19/59/138 18/58/139 46/52/140
f 50/56/141 20/60/142 19/59/143 48/54/144
f 30/61/145 43/49/146 44/50/147 29/62/148
f 31/63/149 47/53/150 43/49/151 30/61/152
f 32/64/153 49/55/154 47/53/155 31/63/156
f 51/65/157 54/68/158 53/67/159 52/66/160
f 52/66/161 55/69/162 51/65/163
f 53/67/164 54/68/165 56/70/166
f 53/67/167 7/72/168 8/71/169 52/66/170
f 9/73/171 55/69/172 52/66/173 8/71/174
f 7/72/175 53/67/176 56/70/177 10/74/178
f 57/75/179 12/76/180 10/74/181 56/70/182
f 58/77/183 55/69/184 9/73/185 13/78/186
f 59/79/187 51/65/188 55/69/189 58/77/190
f 51/65/191 59/79/192 60/80/193 54/68/194
f 57/75/195 56/70/196 54/68/197 60/80/198
f 61/81/199 64/84/200 63/83/201 62/82/202
f 65/85/203 66/86/204 64/84/205 61/81/206
f 24/87/207 28/88/208 66/86/209 65/85/210
f 64/84/211 68/90/212 67/89/213 63/83/214
f 66/86/215 69/91/216 68/90/217 64/84/218
f 28/88/219 20/92/220 69/91/221 66/86/222
f 70/93/223 61/81/224 62/82/225 71/94/226
f 72/95/227 65/85/228 61/81/229 70/93/230
f 32/96/231 24/87/232 65/85/233 72/95/234
f 73/97/235 76/100/236 75/99/237 74/98/238
f 76/100/239 73/97/240 77/101/241
f 75/99/242 78/102/243 74/98/244
f 75/99/245 76/100/246 39/104/247 40/103/248
f 41/105/249 39/104/250 76/100/251 77/101/252
f 40/103/253 42/106/254 78/102/255 75/99/256
f 57/107/257 78/102/258 42/106/259 12/108/260
f 58/109/261 13/110/262 41/105/263 77/101/264
f 59/111/265 58/109/266 77/101/267 73/97/268
f 73/97/269 74/98/270 60/112/271 59/111/272
f 57/107/273 60/112/274 74/98/275 78/102/276
f 79/113/277 82/116/278 81/115/279 80/114/280
f 83/117/281 79/113/282 80/114/283 84/118/284
f 49/119/285 83/117/286 84/118/287 50/120/288
f 80/114/289 81/115/290 67/122/291 68/121/292
f 84/118/293 80/114/294 68/121/295 69/123/296
f 50/120/297 84/118/298 69/123/299 20/124/300
f 70/125/301 71/126/302 82/116/303 79/113/304
f 72/127/305 70/125/306 79/113/307 83/117/308
f 32/128/309 72/127/310 83/117/311 49/119/312
