# This file uses meters as units for non-parametric coordinates.

g default
v 86.602539 0.000000 -50.000000
v 50.000000 0.000000 -86.602539
v 0.000000 0.000000 -100.000000
v -50.000000 0.000000 -86.602539
v -86.602539 0.000000 -50.000000
v -100.000000 0.000000 0.000000
v -86.602539 0.000000 50.000000
v -50.000000 0.000000 86.602539
v 0.000000 0.000000 100.000000
v 50.000000 0.000000 86.602539
v 86.602539 0.000000 50.000000
v 100.000000 0.000000 0.000000
v 86.602539 840.329437 -50.000000
v 50.000000 840.329437 -86.602539
v 0.000000 840.329437 -100.000000
v -50.000000 840.329437 -86.602539
v -86.602539 840.329437 -50.000000
v -100.000000 840.329437 0.000000
v -86.602539 840.329437 50.000000
v -50.000000 840.329437 86.602539
v 0.000000 840.329437 100.000000
v 50.000000 840.329437 86.602539
v 86.602539 840.329437 50.000000
v 100.000000 840.329437 0.000000
vt 0.005351 0.009467
vt 0.087793 0.009467
vt 0.170234 0.009467
vt 0.252676 0.009467
vt 0.335117 0.009467
vt 0.417559 0.009467
vt 0.500000 0.009467
vt 0.582442 0.009467
vt 0.664883 0.009467
vt 0.747325 0.009467
vt 0.829766 0.009467
vt 0.912207 0.009467
vt 0.994649 0.009467
vt 0.005351 0.991472
vt 0.087793 0.991472
vt 0.170234 0.991472
vt 0.252676 0.991472
vt 0.335117 0.991472
vt 0.417559 0.991472
vt 0.500000 0.991472
vt 0.582442 0.991472
vt 0.664883 0.991472
vt 0.747325 0.991472
vt 0.829766 0.991472
vt 0.912207 0.991472
vt 0.994649 0.991472
vn 0.866025 0.000000 -0.500000
vn 0.500000 0.000000 -0.866025
vn 0.500000 0.000000 -0.866025
vn 0.866025 0.000000 -0.500000
vn 0.000000 0.000000 -1.000000
vn 0.000000 0.000000 -1.000000
vn -0.500000 0.000000 -0.866025
vn -0.500000 0.000000 -0.866025
vn -0.866025 0.000000 -0.500000
vn -0.866025 0.000000 -0.500000
vn -1.000000 0.000000 0.000000
vn -1.000000 0.000000 0.000000
vn -0.866025 0.000000 0.500000
vn -0.866025 0.000000 0.500000
vn -0.500000 0.000000 0.866025
vn -0.500000 0.000000 0.866025
vn 0.000000 0.000000 1.000000
vn 0.000000 0.000000 1.000000
vn 0.500000 0.000000 0.866025
vn 0.500000 0.000000 0.866025
vn 0.866025 0.000000 0.500000
vn 0.866025 0.000000 0.500000
vn 1.000000 0.000000 0.000000
vn 1.000000 0.000000 0.000000
s 1
g pCylinder1
f 1/1/1 2/2/2 14/15/3 13/14/4
f 2/2/2 3/3/5 15/16/6 14/15/3
f 3/3/5 4/4/7 16/17/8 15/16/6
f 4/4/7 5/5/9 17/18/10 16/17/8
f 5/5/9 6/6/11 18/19/12 17/18/10
f 6/6/11 7/7/13 19/20/14 18/19/12
f 7/7/13 8/8/15 20/21/16 19/20/14
f 8/8/15 9/9/17 21/22/18 20/21/16
f 9/9/17 10/10/19 22/23/20 21/22/18
f 10/10/19 11/11/21 23/24/22 22/23/20
f 11/11/21 12/12/23 24/25/24 23/24/22
f 12/12/23 1/13/1 13/26/4 24/25/24
