# This file uses meters as units for non-parametric coordinates.

mtllib CaveWallTop.mtl
g default
v -150.000000 500.000000 89.726406
v -150.000000 500.000000 116.444687
v -150.000000 500.000000 149.999966
v -74.676086 521.868713 89.726400
v -84.743500 536.040649 113.198639
v -74.676086 500.000000 149.999966
v -23.188110 489.812256 89.726406
v -18.004578 505.868408 105.066765
v -23.188110 500.000000 149.999966
v 93.567993 489.812256 89.726406
v 84.857758 523.599731 110.088066
v 93.567993 500.000000 149.999966
v 150.000000 500.000000 89.726406
v 150.000000 500.000000 109.665653
v 150.000000 500.000000 149.999977
v 35.189941 500.000000 149.999966
v 28.874817 533.303833 111.993050
v 35.189941 518.614990 89.726406
v -150.000000 500.000000 29.908813
v -149.999954 500.000000 69.221077
v -74.676086 521.868713 29.908825
v -62.082275 511.879883 60.172554
v -23.188156 489.812256 29.908825
v 2.561600 514.237366 42.056688
v 93.567993 489.812256 29.908825
v 88.975204 496.921265 58.425842
v 150.000000 500.000000 29.908825
v 150.000000 500.000000 49.848026
v 33.577560 530.224182 49.842133
v 35.189941 518.614990 29.908825
v -150.000000 500.000000 -71.767937
v -149.999954 500.000000 -43.157272
v -90.135040 530.879822 -70.617188
v -74.676086 521.868713 -29.908813
v -32.213425 500.494324 -74.386116
v -23.188156 489.812256 -40.874531
v 78.212173 494.328552 -69.364855
v 93.567993 489.812256 -29.908825
v 150.000000 500.000000 -69.787233
v 150.000000 500.000000 -29.908825
v 35.189941 518.614990 -29.908822
v 29.399963 523.682739 -71.802858
v -149.999954 500.000000 -14.293190
v -95.514771 520.643616 -8.099533
v -8.176987 486.228760 -12.719765
v 73.704254 479.849670 -9.173196
v 150.000000 500.000000 -9.921610
v 15.168777 526.434998 -10.802908
v -150.000000 500.000000 -150.000000
v -150.000000 500.000000 -122.557663
v -74.676086 500.000000 -150.000011
v -55.985001 542.298950 -111.295200
v -23.188156 500.000000 -150.000011
v -13.453995 514.598389 -114.785419
v 93.567993 500.000000 -150.000000
v 88.380249 527.472656 -110.088055
v 150.000023 500.000000 -150.000000
v 150.000000 500.000000 -109.665642
v 27.201782 525.422607 -108.763470
v 35.189941 500.000000 -150.000000
vt 0.890822 0.583474
vt 0.799058 0.583474
vt 0.998322 0.583474
vt 0.890822 0.767019
vt 0.799058 0.767019
vt 0.998322 0.767019
vt 0.890822 0.904241
vt 0.799058 0.904241
vt 0.998322 0.904241
vt 0.890554 0.998196
vt 0.798790 0.998196
vt 0.998322 0.998087
vt 0.798790 0.904241
vt 0.890554 0.904241
vt 0.890554 0.767019
vt 0.798790 0.767019
vt 0.998054 0.904241
vt 0.998054 0.767019
vt 0.890822 0.998087
vt 0.799058 0.998087
vt 0.998054 0.998196
vt 0.001733 0.998196
vt 0.665234 0.583474
vt 0.564696 0.583474
vt 0.116525 0.998196
vt 0.665234 0.767019
vt 0.564696 0.767019
vt 0.665234 0.904241
vt 0.564696 0.904241
vt 0.665234 0.998087
vt 0.564696 0.998087
vt 0.564427 0.904241
vt 0.664966 0.904242
vt 0.664966 0.767019
vt 0.564427 0.767019
vt 0.001733 0.904241
vt 0.116793 0.998087
vt 0.002002 0.998087
vt 0.116793 0.904241
vt 0.002002 0.904241
vt 0.664966 0.998196
vt 0.564427 0.998196
vt 0.249157 0.583474
vt 0.382981 0.583474
vt 0.249157 0.767019
vt 0.382981 0.767019
vt 0.249157 0.904241
vt 0.382981 0.904241
vt 0.249157 0.998087
vt 0.382981 0.998087
vt 0.248888 0.904241
vt 0.248888 0.767019
vt 0.382712 0.904241
vt 0.382712 0.767019
vt 0.002002 0.583474
vt 0.382712 0.998196
vt 0.248888 0.998196
vt 0.116525 0.904241
vt 0.465970 0.583474
vt 0.465970 0.767019
vt 0.465970 0.904241
vt 0.465970 0.998087
vt 0.465702 0.904241
vt 0.465702 0.767019
vt 0.116525 0.767019
vt 0.116793 0.767019
vt 0.002002 0.767019
vt 0.001734 0.767019
vt 0.465702 0.998196
vt 0.116793 0.583474
vn -0.287323 0.915637 -0.281166
vn -0.296041 0.940201 0.168471
vn -0.064983 0.989048 0.132520
vn -0.003349 0.962488 -0.271304
vn -0.209098 0.857883 0.469376
vn 0.040545 0.886824 0.460326
vn -0.008826 0.999953 -0.003984
vn 0.032379 0.999271 -0.020230
vn 0.031303 0.898590 0.437671
vn -0.071530 0.991891 0.105048
vn 0.005536 0.978805 -0.204722
vn -0.070779 0.854242 0.515035
vn 0.166750 0.969989 -0.176964
vn 0.171773 0.984715 0.028827
vn 0.162767 0.982486 -0.090709
vn -0.026148 0.973628 -0.226638
vn 0.184938 0.948076 0.258748
vn 0.137735 0.899762 0.414075
vn -0.250646 0.960437 0.121394
vn -0.203150 0.979057 -0.013340
vn 0.034408 0.998868 0.032846
vn 0.058519 0.998253 -0.008190
vn -0.223326 0.973470 -0.049814
vn 0.078497 0.985862 -0.148035
vn 0.030776 0.998975 0.033200
vn 0.184504 0.941634 -0.281575
vn 0.119920 0.975265 -0.185679
vn 0.246281 0.969123 0.012124
vn -0.113051 0.993523 -0.011430
vn -0.188019 0.977282 -0.097821
vn -0.147905 0.979680 0.135467
vn -0.409441 0.911040 0.048625
vn -0.349480 0.932558 0.090549
vn 0.194363 0.975396 0.104049
vn 0.157560 0.944589 0.287968
vn 0.047577 0.987974 0.147115
vn 0.118162 0.967255 0.224622
vn -0.022998 0.972331 0.232473
vn -0.156824 0.982816 0.097360
vn 0.023661 0.967129 0.253182
vn 0.222043 0.953952 0.201674
vn 0.088071 0.984684 0.150471
vn -0.307095 0.951666 -0.005015
vn -0.042843 0.999066 -0.005594
vn -0.107147 0.994239 -0.002807
vn -0.153075 0.987756 -0.030086
vn 0.285984 0.958209 -0.006896
vn -0.222824 0.974859 0.000514
vn -0.050048 0.828801 -0.557300
vn -0.179760 0.851021 -0.493406
vn -0.319116 0.908845 -0.268635
vn 0.066975 0.996554 -0.048938
vn 0.090265 0.809851 -0.579650
vn 0.073686 0.985915 -0.150142
vn -0.052844 0.990787 -0.124692
vn -0.038845 0.855754 -0.515922
vn 0.192068 0.978437 0.075960
vn 0.216993 0.927763 -0.303596
vn 0.099199 0.895719 -0.433413
vn 0.136167 0.989638 -0.045551
s 1
g polySurface50
usemtl polySurface49SG
f 1/2/1 2/1/2 5/4/3 4/5/4
f 5/4/3 2/1/2 3/3/5 6/6/6
f 4/5/4 5/4/3 8/7/7 7/8/8
f 8/7/7 5/4/3 6/6/6 9/9/9
f 7/8/8 8/7/7 17/19/10 18/20/11
f 16/12/12 17/19/10 8/7/7 9/9/9
f 10/13/13 11/14/14 14/15/15 13/16/16
f 15/18/17 14/15/15 11/14/14 12/17/18
f 12/17/18 11/14/14 17/10/10 16/21/12
f 18/11/11 17/10/10 11/14/14 10/13/13
f 19/24/19 20/23/20 22/26/21 21/27/22
f 22/26/21 20/23/20 1/2/1 4/5/4
f 21/27/22 22/26/21 24/28/23 23/29/24
f 24/28/23 22/26/21 4/5/4 7/8/8
f 23/29/24 24/28/23 29/30/25 30/31/26
f 18/20/11 29/30/25 24/28/23 7/8/8
f 25/32/27 26/33/28 28/34/29 27/35/30
f 13/16/16 28/34/29 26/33/28 10/13/13
f 10/13/13 26/33/28 29/41/25 18/11/11
f 30/42/26 29/41/25 26/33/28 25/32/27
f 33/45/31 31/43/32 32/44/33 34/46/34
f 35/47/35 33/45/31 34/46/34 36/48/36
f 41/50/37 42/49/38 35/47/35 36/48/36
f 40/54/39 39/52/40 37/51/41 38/53/42
f 38/53/42 37/51/41 42/57/38 41/56/37
f 32/44/33 43/59/43 44/60/44 34/46/34
f 44/60/44 43/59/43 19/24/19 21/27/22
f 34/46/34 44/60/44 45/61/45 36/48/36
f 45/61/45 44/60/44 21/27/22 23/29/24
f 36/48/36 45/61/45 48/62/46 41/50/37
f 30/31/26 48/62/46 45/61/45 23/29/24
f 38/53/42 46/63/47 47/64/48 40/54/39
f 27/35/30 47/64/48 46/63/47 25/32/27
f 25/32/27 46/63/47 48/69/46 30/42/26
f 41/56/37 48/69/46 46/63/47 38/53/42
f 51/67/49 49/55/50 50/70/51 52/66/52
f 33/45/31 52/66/52 50/70/51 31/43/32
f 53/40/53 51/67/49 52/66/52 54/39/54
f 35/47/35 54/39/54 52/66/52 33/45/31
f 59/37/55 60/38/56 53/40/53 54/39/54
f 42/49/38 59/37/55 54/39/54 35/47/35
f 58/65/57 57/68/58 55/36/59 56/58/60
f 39/52/40 58/65/57 56/58/60 37/51/41
f 37/51/41 56/58/60 59/25/55 42/57/38
f 56/58/60 55/36/59 60/22/56 59/25/55
