# This file uses meters as units for non-parametric coordinates.

mtllib CaveWallDiagonal.mtl
g default
v 76.259872 0.000000 90.848892
v 149.999969 0.000000 109.707062
v 71.679077 121.520782 55.566772
v 149.999969 87.295807 79.485825
v 82.910446 206.373352 12.538544
v 149.999969 207.445984 39.880341
v 84.589294 303.133148 14.086548
v 149.999908 311.169006 30.608063
v 103.962585 419.643555 22.445938
v 149.999908 414.891968 30.608063
v 105.502960 480.578888 -18.850586
v 150.000031 489.812256 23.188156
v 122.623779 501.648071 -57.663147
v 149.999908 518.614990 -35.189911
v 149.999969 489.812256 -93.567947
v 99.789474 493.718262 -25.810806
v 52.116501 -0.000000 26.516235
v 38.163132 113.530167 -10.811691
v 49.573303 209.240479 -8.806427
v 77.892883 301.780884 -36.918930
v 42.483643 389.040894 -22.626587
v 63.910416 485.300873 -16.663528
v 117.980988 517.817688 -113.316940
v 149.999969 500.000000 -149.999954
v 100.223160 519.223511 -55.037613
v -33.990814 -0.000000 17.954620
v -2.306610 104.282730 -47.826096
v 10.053024 200.309998 -59.694717
v 24.259476 299.995056 -60.883698
v 40.855774 426.247406 -85.851105
v 62.336975 470.256104 -95.451920
v 96.838547 516.411987 -134.924240
v 75.112259 501.217621 -110.802536
v -109.707031 0.000000 -150.000015
v -49.150803 0.000000 -66.668991
v -79.485840 87.295807 -149.999985
v -24.984222 106.928551 -102.735199
v -39.880310 207.445984 -149.999954
v -33.277634 198.497589 -98.020706
v -30.608078 311.169006 -149.999985
v -3.885956 293.387238 -118.042099
v -30.608078 414.891968 -149.999985
v -21.233292 410.846497 -108.989090
v -23.188141 489.812256 -149.999985
v -20.572571 480.158325 -95.145065
v 93.567917 489.812256 -149.999985
v 55.044128 502.683044 -128.757980
v 14.366653 492.160980 -112.190170
v 35.189911 518.614990 -149.999985
vt 0.828748 0.142237
vt 0.828748 0.002005
vt 0.998322 0.002005
vt 0.998322 0.142237
vt 0.828748 0.294346
vt 0.998322 0.294346
vt 0.828748 0.480664
vt 0.998322 0.480664
vt 0.828748 0.671968
vt 0.998322 0.671968
vt 0.828748 0.908210
vt 0.998322 0.871970
vt 0.998322 0.998087
vt 0.828748 0.998087
vt 0.998054 0.865475
vt 0.828480 0.671968
vt 0.828480 0.908210
vt 0.828480 0.998196
vt 0.603160 0.142237
vt 0.603160 0.002005
vt 0.603160 0.294346
vt 0.603160 0.480664
vt 0.603160 0.671968
vt 0.600677 0.849605
vt 0.603160 0.998087
vt 0.295208 0.671968
vt 0.600409 0.849605
vt 0.602892 0.998196
vt 0.382981 0.142237
vt 0.382981 0.002005
vt 0.382981 0.294346
vt 0.382981 0.480664
vt 0.382981 0.671968
vt 0.407810 0.852960
vt 0.382981 0.998087
vt 0.407542 0.852960
vt 0.382712 0.998196
vt 0.002002 0.142237
vt 0.002003 0.002005
vt 0.193765 0.002005
vt 0.193765 0.142237
vt 0.002002 0.294346
vt 0.193765 0.294346
vt 0.002002 0.480663
vt 0.193765 0.480664
vt 0.002002 0.671968
vt 0.193765 0.671968
vt 0.002002 0.871970
vt 0.223560 0.857433
vt 0.193765 0.998087
vt 0.002002 0.998087
vt 0.001733 0.871970
vt 0.223292 0.857433
vt 0.193496 0.998196
vt 0.001733 0.998196
vn -0.535955 0.248556 0.806828
vn -0.612153 0.237441 0.754248
vn -0.266438 0.342346 0.901005
vn -0.256332 0.351716 0.900328
vn -0.379005 0.204552 0.902504
vn -0.273288 0.228704 0.934349
vn -0.431707 0.055420 0.900310
vn -0.263909 0.009060 0.964505
vn -0.435919 0.125525 0.891189
vn -0.306420 0.088286 0.947793
vn -0.430913 0.410002 0.803874
vn -0.478915 0.451819 0.752662
vn -0.435056 0.863488 0.255176
vn -0.177824 0.804179 0.567163
vn 0.536134 0.837563 0.105112
vn 0.336190 0.938400 0.079886
vn -0.454555 0.159102 0.876394
vn -0.565055 0.184146 0.804241
vn -0.461632 0.181659 0.868272
vn -0.563034 0.125959 0.816778
vn -0.618740 0.070057 0.782466
vn -0.635013 0.517277 0.573745
vn -0.280967 0.943009 0.178301
vn 0.475185 0.876386 -0.078406
vn 0.212823 0.974970 0.064348
vn -0.761275 0.091569 0.641931
vn -0.685357 0.240668 0.687288
vn -0.736218 0.211143 0.642963
vn -0.714742 0.236532 0.658177
vn -0.681152 0.170360 0.712046
vn -0.603977 0.565129 0.561998
vn -0.435626 0.886864 0.153955
vn -0.266388 0.900078 -0.344816
vn -0.828380 0.225644 0.512711
vn -0.734748 0.317101 0.599660
vn -0.947559 0.188139 0.258332
vn -0.967406 0.080308 0.240159
vn -0.958182 0.198430 0.206185
vn -0.955645 0.172526 0.238701
vn -0.974454 0.031931 0.222305
vn -0.945289 0.176386 0.274438
vn -0.992428 -0.049767 0.112295
vn -0.932633 -0.078917 0.352090
vn -0.842369 0.527338 0.111043
vn -0.768825 0.478249 0.424482
vn -0.185821 0.884012 0.428945
vn -0.045050 0.924549 0.378390
vn -0.040864 0.892621 -0.448953
vn 0.010379 0.962216 0.272090
s 1
g CaveWallDiagonal
usemtl polySurface49SG
f 3/1/1 1/2/2 2/3/3 4/4/4
f 5/5/5 3/1/1 4/4/4 6/6/6
f 7/7/7 5/5/5 6/6/6 8/8/8
f 9/9/9 7/7/7 8/8/8 10/10/10
f 11/11/11 9/9/9 10/10/10 12/12/12
f 14/13/13 16/14/14 11/11/11 12/12/12
f 14/15/13 15/16/15 13/17/16
f 14/15/13 13/17/16 16/18/14
f 3/1/1 18/19/17 17/20/18 1/2/2
f 5/5/5 19/21/19 18/19/17 3/1/1
f 7/7/7 20/22/20 19/21/19 5/5/5
f 9/9/9 21/23/21 20/22/20 7/7/7
f 11/11/11 22/24/22 21/23/21 9/9/9
f 16/14/14 25/25/23 22/24/22 11/11/11
f 15/16/15 24/26/24 23/27/25 13/17/16
f 13/17/16 23/27/25 25/28/23 16/18/14
f 27/29/26 26/30/27 17/20/18 18/19/17
f 28/31/28 27/29/26 18/19/17 19/21/19
f 29/32/29 28/31/28 19/21/19 20/22/20
f 30/33/30 29/32/29 20/22/20 21/23/21
f 31/34/31 30/33/30 21/23/21 22/24/22
f 25/25/23 33/35/32 31/34/31 22/24/22
f 24/26/24 32/36/33 23/27/25
f 23/27/25 32/36/33 33/37/32 25/28/23
f 36/38/34 34/39/35 35/40/36 37/41/37
f 27/29/26 37/41/37 35/40/36 26/30/27
f 38/42/38 36/38/34 37/41/37 39/43/39
f 28/31/28 39/43/39 37/41/37 27/29/26
f 40/44/40 38/42/38 39/43/39 41/45/41
f 29/32/29 41/45/41 39/43/39 28/31/28
f 42/46/42 40/44/40 41/45/41 43/47/43
f 30/33/30 43/47/43 41/45/41 29/32/29
f 44/48/44 42/46/42 43/47/43 45/49/45
f 31/34/31 45/49/45 43/47/43 30/33/30
f 48/50/46 49/51/47 44/48/44 45/49/45
f 33/35/32 48/50/46 45/49/45 31/34/31
f 24/26/24 46/52/48 47/53/49
f 24/26/24 47/53/49 32/36/33
f 32/36/33 47/53/49 48/54/46 33/37/32
f 47/53/49 46/52/48 49/55/47 48/54/46
