# This file uses meters as units for non-parametric coordinates.

mtllib CaveWallCurvedInside.mtl
g default
v -119.603088 0.000000 -111.922958
v -130.417816 0.000020 -136.642609
v -149.999969 0.000000 -109.707031
v -116.197029 100.145271 -87.042755
v -131.043015 97.757202 -88.831589
v -149.999969 87.295830 -79.485840
v -111.215240 204.164398 -62.502884
v -128.868301 205.419312 -57.054520
v -149.999969 207.445984 -39.880310
v -106.595764 309.342957 -45.190468
v -126.112938 313.613770 -42.072006
v -149.999969 311.169006 -30.608124
v -103.689995 414.891968 -34.211449
v -120.581665 429.063904 -41.363907
v -149.999969 414.891968 -30.608124
v -101.884125 489.812256 -27.014580
v -111.964233 505.868408 -19.662720
v -149.999969 489.812256 -23.188141
v -45.632187 493.362762 105.203766
v -100.894180 523.100342 98.444016
v -149.999969 489.812256 93.567963
v -23.188141 500.000000 150.000000
v -74.676086 500.000000 150.000000
v -149.999969 500.000000 149.999969
v -149.999969 518.614990 35.189911
v -111.580803 533.303833 27.608269
v -87.676041 518.614990 29.608093
v -107.484482 0.000000 -118.572403
v -116.925621 0.000000 -126.282051
v -91.868950 100.614731 -94.151230
v -104.287125 100.246674 -91.586517
v -79.943268 203.579498 -75.876213
v -94.687683 203.020889 -67.843636
v -71.613701 308.133362 -62.083534
v -86.901855 305.947449 -49.317795
v -66.500038 414.891968 -50.656433
v -79.544388 404.903137 -29.218781
v -62.391453 489.812256 -44.477840
v -57.151718 514.237366 -17.479256
v 28.399466 518.809692 80.988144
v -16.492249 501.754089 100.630203
v 150.000000 500.000000 149.999969
v 35.189941 500.000000 150.000000
v -48.990047 530.224182 13.356060
v -30.066149 518.614990 4.133650
v -111.023651 0.000000 -136.948944
v -98.256516 0.000000 -122.792419
v -77.073486 100.664993 -125.765724
v -75.912933 101.154427 -111.782936
v -53.688347 206.189529 -116.302536
v -58.828182 205.091232 -100.401894
v -40.000465 313.976776 -109.840057
v -46.989586 310.494446 -90.531158
v -37.168945 423.903076 -108.748199
v -36.950497 414.891968 -78.591339
v -23.479149 500.494324 -105.553413
v -26.444931 489.812256 -80.653358
v 76.106171 494.328552 -57.608414
v 93.227623 516.439575 -4.539757
v 150.000031 500.000000 -71.767944
v 150.000031 500.000000 -14.293182
v 15.708134 518.614990 -39.139545
v 32.496918 523.682739 -79.717400
v -92.841629 0.000000 -115.901291
v -80.186813 101.102203 -100.615280
v -67.882515 204.470840 -87.304092
v -60.131439 308.975189 -78.792328
v -61.599625 413.666870 -81.719925
v -27.889616 486.228760 -54.412888
v 42.297600 500.770416 10.353861
v 150.000031 500.000000 69.221077
v -11.893616 526.434998 -37.325951
v -109.707031 0.000000 -150.000031
v -116.768829 0.588728 -146.884552
v -79.485840 87.295830 -150.000031
v -78.096031 98.100082 -138.130615
v -39.880310 207.445984 -150.000031
v -48.401100 206.584030 -132.350937
v -30.608124 311.169006 -150.000031
v -31.200485 316.368042 -127.882904
v -30.608124 414.891968 -150.000031
v -15.052994 435.509796 -122.252975
v -23.188141 489.812256 -150.000015
v 2.402176 514.598389 -128.731323
v 93.567963 489.812256 -150.000031
v 101.851295 527.472656 -106.291588
v 149.999969 500.000000 -150.000031
v 150.000000 500.000000 -122.557678
v 41.474442 525.422607 -116.284500
v 35.189911 518.614990 -150.000031
vt 0.799058 0.002005
vt 0.890822 0.002005
vt 0.890822 0.142237
vt 0.799058 0.142237
vt 0.998322 0.002005
vt 0.998322 0.142237
vt 0.890822 0.294346
vt 0.799058 0.294346
vt 0.998322 0.294346
vt 0.890822 0.480664
vt 0.799058 0.480664
vt 0.998322 0.480664
vt 0.890822 0.671968
vt 0.799058 0.671968
vt 0.998322 0.671968
vt 0.890822 0.871970
vt 0.799058 0.871970
vt 0.998322 0.871970
vt 0.890822 0.998087
vt 0.799058 0.998087
vt 0.998322 0.998087
vt 0.798790 0.871970
vt 0.890554 0.871970
vt 0.890554 0.671968
vt 0.798790 0.671968
vt 0.998054 0.671968
vt 0.998054 0.871970
vt 0.890554 0.998196
vt 0.998054 0.998196
vt 0.798790 0.998196
vt 0.564696 0.002005
vt 0.665234 0.002005
vt 0.665234 0.142237
vt 0.564696 0.142237
vt 0.665234 0.294346
vt 0.564696 0.294346
vt 0.665234 0.480664
vt 0.564696 0.480664
vt 0.665234 0.671968
vt 0.564696 0.671968
vt 0.665234 0.871970
vt 0.564696 0.871970
vt 0.665234 0.998087
vt 0.564696 0.998087
vt 0.564427 0.871970
vt 0.664966 0.871971
vt 0.664966 0.671968
vt 0.564427 0.671968
vt 0.664966 0.998196
vt 0.564427 0.998196
vt 0.249157 0.142237
vt 0.249157 0.002005
vt 0.382981 0.002005
vt 0.382981 0.142237
vt 0.249157 0.294346
vt 0.382981 0.294346
vt 0.249157 0.480664
vt 0.382981 0.480664
vt 0.249157 0.671968
vt 0.382981 0.671968
vt 0.249157 0.871970
vt 0.382981 0.871970
vt 0.382981 0.998087
vt 0.249157 0.998087
vt 0.382712 0.671968
vt 0.248888 0.671968
vt 0.248888 0.871970
vt 0.382712 0.871970
vt 0.248888 0.998196
vt 0.382712 0.998196
vt 0.465970 0.002005
vt 0.465970 0.142237
vt 0.465970 0.294346
vt 0.465970 0.480664
vt 0.465970 0.671968
vt 0.465970 0.871970
vt 0.465970 0.998087
vt 0.465702 0.871970
vt 0.465702 0.671968
vt 0.465702 0.998196
vt 0.002002 0.142237
vt 0.002003 0.002005
vt 0.116793 0.002005
vt 0.116793 0.142237
vt 0.002002 0.294346
vt 0.116793 0.294346
vt 0.002002 0.480663
vt 0.116793 0.480664
vt 0.002002 0.671968
vt 0.116793 0.671968
vt 0.002002 0.871970
vt 0.116793 0.871970
vt 0.116793 0.998087
vt 0.002002 0.998087
vt 0.116525 0.671968
vt 0.001734 0.671968
vt 0.001733 0.871970
vt 0.116525 0.871970
vt 0.116525 0.998196
vt 0.001733 0.998196
vn 0.111011 0.346985 -0.931278
vn -0.006230 0.403603 -0.914913
vn 0.010578 0.403020 -0.915130
vn 0.025797 0.393146 -0.919114
vn -0.342105 0.374714 -0.861716
vn -0.038544 0.403738 -0.914062
vn 0.003889 0.308705 -0.951150
vn 0.033855 0.115682 -0.992709
vn -0.121353 0.107214 -0.986802
vn -0.000928 0.011328 -0.999936
vn 0.136230 0.009237 -0.990634
vn -0.293049 0.002895 -0.956093
vn -0.013680 0.135589 -0.990671
vn 0.386908 0.087063 -0.917999
vn -0.329752 0.091748 -0.939599
vn 0.027771 0.698515 -0.715056
vn 0.344383 0.285808 -0.894267
vn -0.207883 0.440939 -0.873131
vn -0.047863 0.994281 -0.095474
vn 0.204722 0.978805 0.005536
vn -0.427144 0.901845 -0.064980
vn 0.176964 0.969989 0.166750
vn 0.000974 0.969145 0.246488
vn 0.001966 0.993969 0.109647
vn 0.226638 0.973628 -0.026148
vn -0.376488 0.920691 0.102878
vn -0.413686 0.892974 0.177371
vn 0.386233 0.333325 -0.860069
vn 0.032616 0.329266 -0.943674
vn -0.028703 0.348659 -0.936810
vn 0.044138 0.320748 -0.946136
vn -0.000702 0.300236 -0.953865
vn 0.041700 0.169530 -0.984642
vn -0.003640 0.060119 -0.998185
vn 0.027054 0.040516 -0.998813
vn 0.018494 0.148161 -0.988790
vn -0.197071 0.104472 -0.974807
vn 0.076648 0.682355 -0.726992
vn -0.330331 0.393299 -0.858019
vn -0.033200 0.998975 0.030775
vn 0.281574 0.941634 0.184505
vn 0.185680 0.975265 0.119920
vn -0.012124 0.969123 0.246280
vn 0.011430 0.993523 -0.113051
vn 0.097822 0.977282 -0.188019
vn -0.075245 0.400380 -0.913255
vn -0.174063 0.554933 -0.813481
vn -0.292569 0.384466 -0.875551
vn -0.223887 0.236949 -0.945373
vn -0.002514 0.187587 -0.982245
vn -0.273071 0.181842 -0.944651
vn 0.076652 0.114808 -0.990426
vn -0.258776 0.038711 -0.965161
vn 0.197409 0.065668 -0.978119
vn -0.192440 0.042879 -0.980372
vn 0.122749 0.466449 -0.875990
vn -0.218407 0.509713 -0.832161
vn -0.224621 0.967255 0.118162
vn -0.232473 0.972331 -0.022998
vn -0.097361 0.982816 -0.156824
vn -0.253181 0.967130 0.023661
vn -0.201674 0.953952 0.222043
vn -0.150471 0.984684 0.088071
vn 0.000492 0.353975 -0.935255
vn -0.007276 0.309429 -0.950895
vn 0.000805 0.213204 -0.977007
vn 0.000248 0.051492 -0.998673
vn -0.003358 0.025463 -0.999670
vn 0.001562 0.524817 -0.851213
vn 0.030086 0.987756 -0.153075
vn 0.006896 0.958209 0.285985
vn -0.000514 0.974859 -0.222824
vn 0.105064 0.319254 -0.941827
vn 0.307911 0.511584 -0.802167
vn 0.038164 0.595971 -0.802098
vn 0.185722 0.373842 -0.908707
vn 0.022662 0.218315 -0.975615
vn 0.245209 0.215854 -0.945135
vn -0.237442 0.084858 -0.967688
vn 0.235257 0.120355 -0.964453
vn -0.370344 0.025849 -0.928535
vn 0.202003 0.048925 -0.978162
vn -0.213570 0.265050 -0.940285
vn 0.201554 0.676894 -0.707948
vn 0.065721 0.996153 -0.057969
vn 0.425231 0.904958 -0.015156
vn -0.015614 0.987891 0.154361
vn 0.413979 0.900469 0.133326
vn 0.428549 0.889664 0.157619
vn 0.021735 0.981153 0.192008
s 1
g CurvedWallInside
usemtl polySurface49SG
f 1/1/1 2/2/2 5/3/3 4/4/4
f 5/3/3 2/2/2 3/5/5 6/6/6
f 4/4/4 5/3/3 8/7/7 7/8/8
f 8/7/7 5/3/3 6/6/6 9/9/9
f 7/8/8 8/7/7 11/10/10 10/11/11
f 11/10/10 8/7/7 9/9/9 12/12/12
f 10/11/11 11/10/10 14/13/13 13/14/14
f 14/13/13 11/10/10 12/12/12 15/15/15
f 13/14/14 14/13/13 17/16/16 16/17/17
f 17/16/16 14/13/13 15/15/15 18/18/18
f 16/17/17 17/16/16 26/19/19 27/20/20
f 25/21/21 26/19/19 17/16/16 18/18/18
f 19/22/22 20/23/23 23/24/24 22/25/25
f 24/26/26 23/24/24 20/23/23 21/27/27
f 21/27/27 20/23/23 26/28/19 25/29/21
f 27/30/20 26/28/19 20/23/23 19/22/22
f 28/31/28 29/32/29 31/33/30 30/34/31
f 31/33/30 29/32/29 1/1/1 4/4/4
f 30/34/31 31/33/30 33/35/32 32/36/33
f 33/35/32 31/33/30 4/4/4 7/8/8
f 32/36/33 33/35/32 35/37/34 34/38/35
f 35/37/34 33/35/32 7/8/8 10/11/11
f 34/38/35 35/37/34 37/39/36 36/40/37
f 37/39/36 35/37/34 10/11/11 13/14/14
f 36/40/37 37/39/36 39/41/38 38/42/39
f 39/41/38 37/39/36 13/14/14 16/17/17
f 38/42/39 39/41/38 44/43/40 45/44/41
f 27/20/20 44/43/40 39/41/38 16/17/17
f 40/45/42 41/46/43 43/47/44 42/48/45
f 22/25/25 43/47/44 41/46/43 19/22/22
f 19/22/22 41/46/43 44/49/40 27/30/20
f 45/50/41 44/49/40 41/46/43 40/45/42
f 48/51/46 46/52/47 47/53/48 49/54/49
f 50/55/50 48/51/46 49/54/49 51/56/51
f 52/57/52 50/55/50 51/56/51 53/58/53
f 54/59/54 52/57/52 53/58/53 55/60/55
f 56/61/56 54/59/54 55/60/55 57/62/57
f 62/63/58 63/64/59 56/61/56 57/62/57
f 61/65/60 60/66/61 58/67/62 59/68/63
f 59/68/63 58/67/62 63/69/59 62/70/58
f 47/53/48 64/71/64 65/72/65 49/54/49
f 65/72/65 64/71/64 28/31/28 30/34/31
f 49/54/49 65/72/65 66/73/66 51/56/51
f 66/73/66 65/72/65 30/34/31 32/36/33
f 51/56/51 66/73/66 67/74/67 53/58/53
f 67/74/67 66/73/66 32/36/33 34/38/35
f 53/58/53 67/74/67 68/75/68 55/60/55
f 68/75/68 67/74/67 34/38/35 36/40/37
f 55/60/55 68/75/68 69/76/69 57/62/57
f 69/76/69 68/75/68 36/40/37 38/42/39
f 57/62/57 69/76/69 72/77/70 62/63/58
f 45/44/41 72/77/70 69/76/69 38/42/39
f 59/68/63 70/78/71 71/79/72 61/65/60
f 42/48/45 71/79/72 70/78/71 40/45/42
f 40/45/42 70/78/71 72/80/70 45/50/41
f 62/70/58 72/80/70 70/78/71 59/68/63
f 75/81/73 73/82/74 74/83/75 76/84/76
f 48/51/46 76/84/76 74/83/75 46/52/47
f 77/85/77 75/81/73 76/84/76 78/86/78
f 50/55/50 78/86/78 76/84/76 48/51/46
f 79/87/79 77/85/77 78/86/78 80/88/80
f 52/57/52 80/88/80 78/86/78 50/55/50
f 81/89/81 79/87/79 80/88/80 82/90/82
f 54/59/54 82/90/82 80/88/80 52/57/52
f 83/91/83 81/89/81 82/90/82 84/92/84
f 56/61/56 84/92/84 82/90/82 54/59/54
f 89/93/85 90/94/86 83/91/83 84/92/84
f 63/64/59 89/93/85 84/92/84 56/61/56
f 88/95/87 87/96/88 85/97/89 86/98/90
f 60/66/61 88/95/87 86/98/90 58/67/62
f 58/67/62 86/98/90 89/99/85 63/69/59
f 86/98/90 85/97/89 90/100/86 89/99/85
