# This file uses meters as units for non-parametric coordinates.

mtllib CaveWallStraight.mtl
g default
v -109.707031 0.000000 74.726601
v -136.428986 0.000020 102.184723
v -109.707031 0.000000 149.999969
v -79.485748 87.295807 74.726593
v -98.499237 67.154602 104.675102
v -79.485840 87.295830 149.999969
v -39.880310 207.445984 82.245483
v -33.118500 185.931870 118.417671
v -39.880310 207.445984 149.999969
v -30.608124 311.168976 89.726418
v -50.497040 317.781189 116.444733
v -30.608124 311.169006 149.999969
v -30.608124 414.891968 89.726418
v -40.675537 429.063904 113.198547
v -30.608124 414.891968 149.999969
v -23.188141 489.812256 89.726418
v -18.004608 505.868408 105.066757
v -23.188141 489.812256 149.999969
v 93.567963 489.812256 89.726418
v 84.857727 523.599731 110.088089
v 93.567963 489.812256 149.999969
v 149.999969 500.000000 89.726418
v 149.999969 500.000000 109.665710
v 149.999969 500.000000 149.999969
v 35.189911 518.614990 149.999969
v 28.874786 533.303833 111.993073
v 35.189911 518.614990 89.726410
v -109.707031 0.000000 14.909012
v -121.503235 0.000000 30.598541
v -79.485748 87.295807 14.909012
v -98.499237 67.154594 49.852615
v -39.880310 207.445984 22.427933
v -30.993149 189.498260 47.660454
v -30.608124 311.168976 29.908829
v -47.375320 314.751129 69.221069
v -30.608124 414.891968 29.908829
v -18.014221 404.903137 60.172554
v -23.188187 489.812256 29.908829
v 2.561615 514.237366 42.056686
v 93.567963 489.812256 29.908829
v 88.975174 496.921265 58.425842
v 149.999969 500.000000 29.908829
v 150.000031 500.000000 49.848015
v 33.577484 530.224182 49.842133
v 35.189911 518.614990 29.908821
v -127.016220 0.000000 -77.595947
v -109.707031 0.000000 -45.158737
v -84.620438 64.429581 -78.626114
v -79.485840 87.295807 -45.158752
v -70.864502 187.001938 -83.422211
v -39.880356 207.445984 -37.389740
v -45.258759 303.093353 -71.767944
v -30.608078 311.168976 -43.157257
v -46.067032 423.903076 -70.617218
v -30.608078 414.891968 -29.908829
v -32.213455 500.494324 -74.386108
v -23.188232 489.812256 -40.874542
v 78.212143 494.328552 -69.364853
v 93.567963 489.812256 -29.908829
v 149.999969 500.000000 -69.787231
v 149.999969 500.000000 -29.908829
v 35.189911 518.614990 -29.908829
v 29.399933 523.682739 -71.802856
v -97.582520 0.000000 -17.778290
v -70.378311 64.429581 -18.808472
v -61.388153 168.348618 -13.088928
v -15.921280 309.489777 -14.293198
v -51.446808 413.666870 -8.099579
v -8.177063 486.228760 -12.719772
v 73.704224 479.849670 -9.173203
v 149.999969 500.000000 -9.921616
v 15.168655 526.434998 -10.802872
v -109.707077 0.000000 -150.000000
v -147.769669 0.000020 -117.146545
v -79.485840 87.295807 -150.000000
v -76.613235 71.877357 -116.794067
v -39.880356 207.445984 -150.000000
v -51.220352 202.001434 -108.634766
v -30.608078 311.169006 -150.000000
v -21.684250 305.859283 -122.557648
v -30.608078 414.891968 -150.000000
v -11.917038 435.322235 -111.295197
v -23.188187 489.812256 -150.000000
v -13.454025 514.598389 -114.785400
v 93.567963 489.812256 -150.000000
v 88.380219 527.472656 -110.088074
v 150.000000 500.000000 -150.000000
v 150.000000 500.000000 -109.665710
v 27.201752 525.422607 -108.763489
v 35.189911 518.614990 -150.000000
vt 0.799058 0.002005
vt 0.890822 0.002005
vt 0.890822 0.142237
vt 0.799058 0.142237
vt 0.998322 0.002005
vt 0.998322 0.142237
vt 0.890822 0.294346
vt 0.799058 0.294346
vt 0.998322 0.294346
vt 0.890822 0.480664
vt 0.799058 0.480664
vt 0.998322 0.480664
vt 0.890822 0.671968
vt 0.799058 0.671968
vt 0.998322 0.671968
vt 0.890822 0.871970
vt 0.799058 0.871970
vt 0.998322 0.871970
vt 0.890822 0.998087
vt 0.799058 0.998087
vt 0.998322 0.998087
vt 0.798790 0.871970
vt 0.890554 0.871970
vt 0.890554 0.671968
vt 0.798790 0.671968
vt 0.998054 0.671968
vt 0.998054 0.871970
vt 0.890554 0.998196
vt 0.998054 0.998196
vt 0.798790 0.998196
vt 0.564696 0.002005
vt 0.665234 0.002005
vt 0.665234 0.142237
vt 0.564696 0.142237
vt 0.665234 0.294346
vt 0.564696 0.294346
vt 0.665234 0.480664
vt 0.564696 0.480664
vt 0.665234 0.671968
vt 0.564696 0.671968
vt 0.665234 0.871970
vt 0.564696 0.871970
vt 0.665234 0.998087
vt 0.564696 0.998087
vt 0.564427 0.871970
vt 0.664966 0.871971
vt 0.664966 0.671968
vt 0.564427 0.671968
vt 0.664966 0.998196
vt 0.564427 0.998196
vt 0.249157 0.142237
vt 0.249157 0.002005
vt 0.382981 0.002005
vt 0.382981 0.142237
vt 0.249157 0.294346
vt 0.382981 0.294346
vt 0.249157 0.480664
vt 0.382981 0.480664
vt 0.249157 0.671968
vt 0.382981 0.671968
vt 0.249157 0.871970
vt 0.382981 0.871970
vt 0.382981 0.998087
vt 0.249157 0.998087
vt 0.382712 0.671968
vt 0.248888 0.671968
vt 0.248888 0.871970
vt 0.382712 0.871970
vt 0.248888 0.998196
vt 0.382712 0.998196
vt 0.465970 0.002005
vt 0.465970 0.142237
vt 0.465970 0.294346
vt 0.465970 0.480664
vt 0.465970 0.671968
vt 0.465970 0.871970
vt 0.465970 0.998087
vt 0.465702 0.871970
vt 0.465702 0.671968
vt 0.465702 0.998196
vt 0.002002 0.142237
vt 0.002003 0.002005
vt 0.116793 0.002005
vt 0.116793 0.142237
vt 0.002002 0.294346
vt 0.116793 0.294346
vt 0.002002 0.480663
vt 0.116793 0.480664
vt 0.002002 0.671968
vt 0.116793 0.671968
vt 0.002002 0.871970
vt 0.116793 0.871970
vt 0.116793 0.998087
vt 0.002002 0.998087
vt 0.116525 0.671968
vt 0.001734 0.671968
vt 0.001733 0.871970
vt 0.116525 0.871970
vt 0.116525 0.998196
vt 0.001733 0.998196
vn -0.931278 0.346985 -0.111011
vn -0.914913 0.403603 0.006230
vn -0.915130 0.403020 -0.010578
vn -0.919114 0.393146 -0.025797
vn -0.861716 0.374714 0.342105
vn -0.914062 0.403738 0.038544
vn -0.951150 0.308705 -0.003889
vn -0.992709 0.115682 -0.033855
vn -0.986802 0.107214 0.121353
vn -0.999936 0.011328 0.000928
vn -0.990634 0.009237 -0.136230
vn -0.956093 0.002895 0.293049
vn -0.990671 0.135589 0.013680
vn -0.917999 0.087063 -0.386908
vn -0.939599 0.091748 0.329752
vn -0.715056 0.698515 -0.027771
vn -0.894267 0.285808 -0.344383
vn -0.873131 0.440939 0.207883
vn -0.095474 0.994281 0.047863
vn 0.005536 0.978805 -0.204722
vn -0.064980 0.901845 0.427144
vn 0.166750 0.969989 -0.176964
vn 0.246488 0.969145 -0.000974
vn 0.109647 0.993969 -0.001966
vn -0.026148 0.973628 -0.226638
vn 0.102878 0.920691 0.376488
vn 0.177371 0.892974 0.413686
vn -0.860069 0.333325 -0.386233
vn -0.943674 0.329266 -0.032616
vn -0.936810 0.348659 0.028703
vn -0.946136 0.320748 -0.044138
vn -0.953865 0.300236 0.000702
vn -0.984642 0.169530 -0.041700
vn -0.998185 0.060119 0.003640
vn -0.998813 0.040516 -0.027054
vn -0.988790 0.148161 -0.018494
vn -0.974807 0.104472 0.197071
vn -0.726992 0.682355 -0.076648
vn -0.858019 0.393299 0.330331
vn 0.030775 0.998975 0.033200
vn 0.184505 0.941634 -0.281574
vn 0.119920 0.975265 -0.185680
vn 0.246280 0.969123 0.012124
vn -0.113051 0.993523 -0.011430
vn -0.188019 0.977282 -0.097822
vn -0.913255 0.400380 0.075245
vn -0.813481 0.554933 0.174063
vn -0.875551 0.384466 0.292569
vn -0.945373 0.236949 0.223887
vn -0.982245 0.187587 0.002514
vn -0.944651 0.181842 0.273071
vn -0.990426 0.114808 -0.076652
vn -0.965161 0.038711 0.258776
vn -0.978119 0.065668 -0.197409
vn -0.980372 0.042879 0.192440
vn -0.875990 0.466449 -0.122749
vn -0.832161 0.509713 0.218407
vn 0.118162 0.967255 0.224621
vn -0.022998 0.972331 0.232473
vn -0.156824 0.982816 0.097361
vn 0.023661 0.967130 0.253181
vn 0.222043 0.953952 0.201674
vn 0.088071 0.984684 0.150471
vn -0.935255 0.353975 -0.000492
vn -0.950895 0.309429 0.007276
vn -0.977007 0.213204 -0.000805
vn -0.998673 0.051492 -0.000248
vn -0.999670 0.025463 0.003358
vn -0.851214 0.524817 -0.001562
vn -0.153075 0.987756 -0.030086
vn 0.285985 0.958209 -0.006896
vn -0.222824 0.974859 0.000514
vn -0.941827 0.319254 -0.105064
vn -0.802167 0.511584 -0.307911
vn -0.802098 0.595971 -0.038164
vn -0.908707 0.373842 -0.185722
vn -0.975615 0.218315 -0.022662
vn -0.945135 0.215854 -0.245209
vn -0.967688 0.084858 0.237442
vn -0.964453 0.120355 -0.235257
vn -0.928535 0.025849 0.370344
vn -0.978162 0.048925 -0.202003
vn -0.940285 0.265050 0.213570
vn -0.707948 0.676894 -0.201554
vn -0.057969 0.996153 -0.065721
vn -0.015156 0.904958 -0.425231
vn 0.154361 0.987891 0.015614
vn 0.133326 0.900469 -0.413979
vn 0.157619 0.889664 -0.428549
vn 0.192008 0.981153 -0.021735
s 1
g CaveWallStraight
usemtl polySurface49SG
f 1/1/1 2/2/2 5/3/3 4/4/4
f 5/3/3 2/2/2 3/5/5 6/6/6
f 4/4/4 5/3/3 8/7/7 7/8/8
f 8/7/7 5/3/3 6/6/6 9/9/9
f 7/8/8 8/7/7 11/10/10 10/11/11
f 11/10/10 8/7/7 9/9/9 12/12/12
f 10/11/11 11/10/10 14/13/13 13/14/14
f 14/13/13 11/10/10 12/12/12 15/15/15
f 13/14/14 14/13/13 17/16/16 16/17/17
f 17/16/16 14/13/13 15/15/15 18/18/18
f 16/17/17 17/16/16 26/19/19 27/20/20
f 25/21/21 26/19/19 17/16/16 18/18/18
f 19/22/22 20/23/23 23/24/24 22/25/25
f 24/26/26 23/24/24 20/23/23 21/27/27
f 21/27/27 20/23/23 26/28/19 25/29/21
f 27/30/20 26/28/19 20/23/23 19/22/22
f 28/31/28 29/32/29 31/33/30 30/34/31
f 31/33/30 29/32/29 1/1/1 4/4/4
f 30/34/31 31/33/30 33/35/32 32/36/33
f 33/35/32 31/33/30 4/4/4 7/8/8
f 32/36/33 33/35/32 35/37/34 34/38/35
f 35/37/34 33/35/32 7/8/8 10/11/11
f 34/38/35 35/37/34 37/39/36 36/40/37
f 37/39/36 35/37/34 10/11/11 13/14/14
f 36/40/37 37/39/36 39/41/38 38/42/39
f 39/41/38 37/39/36 13/14/14 16/17/17
f 38/42/39 39/41/38 44/43/40 45/44/41
f 27/20/20 44/43/40 39/41/38 16/17/17
f 40/45/42 41/46/43 43/47/44 42/48/45
f 22/25/25 43/47/44 41/46/43 19/22/22
f 19/22/22 41/46/43 44/49/40 27/30/20
f 45/50/41 44/49/40 41/46/43 40/45/42
f 48/51/46 46/52/47 47/53/48 49/54/49
f 50/55/50 48/51/46 49/54/49 51/56/51
f 52/57/52 50/55/50 51/56/51 53/58/53
f 54/59/54 52/57/52 53/58/53 55/60/55
f 56/61/56 54/59/54 55/60/55 57/62/57
f 62/63/58 63/64/59 56/61/56 57/62/57
f 61/65/60 60/66/61 58/67/62 59/68/63
f 59/68/63 58/67/62 63/69/59 62/70/58
f 47/53/48 64/71/64 65/72/65 49/54/49
f 65/72/65 64/71/64 28/31/28 30/34/31
f 49/54/49 65/72/65 66/73/66 51/56/51
f 66/73/66 65/72/65 30/34/31 32/36/33
f 51/56/51 66/73/66 67/74/67 53/58/53
f 67/74/67 66/73/66 32/36/33 34/38/35
f 53/58/53 67/74/67 68/75/68 55/60/55
f 68/75/68 67/74/67 34/38/35 36/40/37
f 55/60/55 68/75/68 69/76/69 57/62/57
f 69/76/69 68/75/68 36/40/37 38/42/39
f 57/62/57 69/76/69 72/77/70 62/63/58
f 45/44/41 72/77/70 69/76/69 38/42/39
f 59/68/63 70/78/71 71/79/72 61/65/60
f 42/48/45 71/79/72 70/78/71 40/45/42
f 40/45/42 70/78/71 72/80/70 45/50/41
f 62/70/58 72/80/70 70/78/71 59/68/63
f 75/81/73 73/82/74 74/83/75 76/84/76
f 48/51/46 76/84/76 74/83/75 46/52/47
f 77/85/77 75/81/73 76/84/76 78/86/78
f 50/55/50 78/86/78 76/84/76 48/51/46
f 79/87/79 77/85/77 78/86/78 80/88/80
f 52/57/52 80/88/80 78/86/78 50/55/50
f 81/89/81 79/87/79 80/88/80 82/90/82
f 54/59/54 82/90/82 80/88/80 52/57/52
f 83/91/83 81/89/81 82/90/82 84/92/84
f 56/61/56 84/92/84 82/90/82 54/59/54
f 89/93/85 90/94/86 83/91/83 84/92/84
f 63/64/59 89/93/85 84/92/84 56/61/56
f 88/95/87 87/96/88 85/97/89 86/98/90
f 60/66/61 88/95/87 86/98/90 58/67/62
f 58/67/62 86/98/90 89/99/85 63/69/59
f 86/98/90 85/97/89 90/100/86 89/99/85
