# This file uses meters as units for non-parametric coordinates.

g default
v -19.119301 0.000000 83.985420
v 19.119301 0.000000 71.594963
v -19.119301 8.550314 83.985420
v 19.119301 8.550314 71.594963
v -19.119301 8.550314 -83.985420
v 19.119301 8.550314 -82.743912
v -19.119301 0.000000 -83.985420
v 19.119301 0.000000 -82.743912
v 7.525849 8.550314 83.985420
v 7.525849 8.550314 -71.663673
v 7.525849 0.000000 -71.663673
v 7.525849 0.000000 83.985420
v -7.245754 8.550314 71.859879
v -7.245754 8.550314 -87.090820
v -7.245754 0.000000 -87.090820
v -7.245754 0.000000 71.859879
vt 0.255556 0.175046
vt 0.543088 0.175046
vt 0.543088 0.212499
vt 0.255556 0.212499
vt 0.255556 0.212499
vt 0.543088 0.212499
vt 0.543088 0.175046
vt 0.255556 0.175046
vt 0.001093 0.025169
vt 0.149193 0.167796
vt 0.794958 0.362543
vt 0.817582 0.362543
vt 0.817582 0.810741
vt 0.794958 0.810741
vt 0.149193 0.844789
vt 0.001093 1.000000
vt 0.001093 1.000000
vt 0.149193 0.844789
vt 0.149193 0.167796
vt 0.001093 0.025169
vt 0.817582 0.362543
vt 0.794958 0.362543
vt 0.794958 0.810741
vt 0.817582 0.810741
vt 0.104291 0.124553
vt 0.455912 0.212499
vt 0.455912 0.212499
vt 0.104291 0.891847
vt 0.104291 0.891847
vt 0.455912 0.175046
vt 0.455912 0.175046
vt 0.104291 0.124553
vt 0.047080 0.069457
vt 0.344838 0.212499
vt 0.344838 0.212499
vt 0.047080 0.951805
vt 0.047080 0.951805
vt 0.344838 0.175046
vt 0.344838 0.175046
vt 0.047080 0.069457
vn 0.714492 0.000000 0.699643
vn 0.000000 0.000000 1.000000
vn 0.000000 0.000000 1.000000
vn 0.714492 0.000000 0.699643
vn 0.000000 1.000000 0.000000
vn 0.000000 1.000000 0.000000
vn 0.000000 1.000000 0.000000
vn 0.000000 1.000000 0.000000
vn -0.253029 0.000000 -0.967459
vn 0.419732 0.000000 -0.907648
vn 0.419732 0.000000 -0.907648
vn -0.253029 0.000000 -0.967459
vn 0.000000 -1.000000 0.000000
vn 0.000000 -1.000000 0.000000
vn 0.000000 -1.000000 0.000000
vn 0.000000 -1.000000 0.000000
vn 1.000000 0.000000 0.000000
vn 1.000000 0.000000 0.000000
vn 1.000000 0.000000 0.000000
vn 1.000000 0.000000 0.000000
vn -1.000000 0.000000 0.000000
vn -1.000000 0.000000 0.000000
vn -1.000000 0.000000 0.000000
vn -1.000000 0.000000 0.000000
vn 0.000000 1.000000 0.000000
vn 0.000000 1.000000 0.000000
vn 0.000000 1.000000 0.000000
vn 0.000000 1.000000 0.000000
vn 0.162678 0.000000 -0.986679
vn 0.162678 0.000000 -0.986679
vn -0.690925 0.000000 -0.722927
vn -0.690925 0.000000 -0.722927
vn 0.000000 -1.000000 0.000000
vn 0.000000 -1.000000 0.000000
vn 0.000000 -1.000000 0.000000
vn 0.000000 -1.000000 0.000000
vn 0.010047 0.000000 0.999950
vn 0.010047 0.000000 0.999950
vn 0.730201 0.000000 0.683232
vn 0.730201 0.000000 0.683232
s 1
g CratePiece
f 1/1/1 16/39/2 13/34/3 3/4/4
s 2
f 3/9/5 13/33/6 14/36/7 5/16/8
s 3
f 5/5/9 14/35/10 15/38/11 7/8/12
s 4
f 7/17/13 15/37/14 16/40/15 1/20/16
s off
f 2/11/17 8/12/18 6/13/19 4/14/20
f 7/21/21 1/22/22 3/23/23 5/24/24
s 2
f 9/25/25 4/10/26 6/15/27 10/28/28
s 3
f 11/30/29 10/27/30 6/6/31 8/7/32
s 4
f 12/32/33 11/29/34 8/18/35 2/19/36
s 1
f 9/26/37 12/31/38 2/2/39 4/3/40
s 2
f 13/33/6 9/25/25 10/28/28 14/36/7
s 3
f 15/38/11 14/35/10 10/27/30 11/30/29
s 4
f 16/40/15 15/37/14 11/29/34 12/32/33
s 1
f 13/34/3 16/39/2 12/31/38 9/26/37
